<?xml version="1.0" encoding="utf-8"?>
<!-- Generator: Adobe Illustrator 25.4.1, SVG Export Plug-In . SVG Version: 6.00 Build 0)  -->
<svg version="1.1" id="Laag_1" xmlns="http://www.w3.org/2000/svg" xmlns:xlink="http://www.w3.org/1999/xlink" x="0px" y="0px"
	 viewBox="0 0 210 210" style="enable-background:new 0 0 210 210;" xml:space="preserve">
<style type="text/css">
	.st0{fill:url(#SVGID_1_);}
	.st1{fill:#EDA600;}
</style>
<g>
	
		<linearGradient id="SVGID_1_" gradientUnits="userSpaceOnUse" x1="-667.5151" y1="-9416.6533" x2="-667.5151" y2="-9275.7197" gradientTransform="matrix(1 0 0 -1 772.5 -9237.1533)">
		<stop  offset="0" style="stop-color:#FFB300"/>
		<stop  offset="0.4007" style="stop-color:#FFCA28"/>
	</linearGradient>
	<path class="st0" d="M169.3,191.1c-34.8,0-96.4-0.6-118.2-4.8C21,180.5,18.7,168.7,19,157.1c0.2-9.9,4.8-43,9.2-56.6
		C35,80,45.3,59.7,51.6,50.9c8.6-12,30.5-31.3,52.5-32h0.2c2.9,0,5.8,1.9,7.5,5l8.6,15.2c2.1,3.6,2,8.1-0.1,11.7
		c-1.7,2.9-6.8,3.7-6.9,3.7l-4,0.6l2.7,3.1c0,0,0.9,1.4-1.2,4.6c-1.9,2.8-5.6,4.1-11.3,4.1c-5.4,0-11.5-1.2-16.4-2.2
		c-0.6-0.1-1.2-0.2-1.8-0.2c-4.2,0-5.7,3.3-7.3,6.7c-0.2,0.5-0.5,1.1-0.8,1.7c-2.7,5.6-2.8,16.6-2.8,26.3c0,3.4,0,6.7-0.2,9.3
		c-0.5,9.2-3.8,20.9-3.8,21.1l-2.2,7.8l5.9-5.6c0.3-0.3,29.1-27.6,58.2-27.6c16,0,31.7,5.8,41.8,15.5c6.2,6,12.2,7.2,16.1,7.2
		c1.7,0,3.3-0.2,4.5-0.5l0.3,64.5C187.4,191,179.5,191.1,169.3,191.1z"/>
	<path class="st1" d="M104.3,21.2c2.1,0,4.3,1.5,5.6,3.9l8.6,15.2c1.7,3,1.6,6.6-0.1,9.5c-0.8,1.4-3.7,2.4-5.3,2.7l-8.1,1.1l5.1,5.7
		c0,0.3-0.2,1-1,2.3c-1.5,2.1-4.7,3.2-9.5,3.2c-5.1,0-11.1-1.2-15.9-2.1c-0.8-0.1-1.5-0.2-2.2-0.2c-5.6,0-7.7,4.4-9.3,8
		c-0.2,0.5-0.5,1.1-0.8,1.7c-2.9,6.1-3,16.8-3.1,27.2c0,3.4,0,6.6-0.2,9.2c-0.5,8.9-3.7,20.5-3.8,20.6l-4.4,15.6l11.7-11.2
		c0.3-0.3,28.5-26.9,56.7-26.9c15.5,0,30.5,5.6,40.3,14.9c6.8,6.5,13.3,7.8,17.7,7.8c0.8,0,1.6,0,2.3-0.1l0.2,59.7
		c-4.1,0-11,0.1-19.5,0.1c-34.7,0-96.2-0.6-117.8-4.7c-13.2-2.5-21.7-6.3-26.2-11.6c-3.8-4.6-4.2-10.1-4.1-15.4
		c0.2-9.8,4.7-42.5,9.1-55.9c6.5-19.5,16.8-40.3,23.1-49c8.4-11.7,29.6-30.4,50.7-31L104.3,21.2 M104.3,16.7H104
		c-23.2,0.7-45.7,21-54.2,32.9c-6.5,9-17,29.8-23.7,50.2c-4.4,13.5-9.1,46.7-9.3,57.2c-0.3,12.8,2.7,25.5,33.9,31.4
		c22,4.2,84.1,4.8,118.6,4.8c14.3,0,23.9-0.1,23.9-0.1l-0.3-69.8c0,0-2.6,1.5-6.7,1.5c-3.9,0-9.1-1.4-14.6-6.6
		c-11-10.5-27.6-16.2-43.4-16.2c-30.4,0-59.8,28.2-59.8,28.2s3.4-12,3.9-21.6c0.5-10-0.6-27.7,2.8-34.8c2-4.1,2.8-7.1,6.1-7.1
		c0.4,0,0.9,0,1.4,0.1c5.1,1,11.3,2.2,16.8,2.2c5.6,0,10.5-1.2,13.2-5.1c3.3-4.8,1.1-7.3,1.1-7.3s6.1-0.9,8.5-4.8
		c2.5-4.3,2.6-9.6,0.1-13.9l-8.6-15.2C111.8,19.4,108.3,16.7,104.3,16.7L104.3,16.7z"/>
	<path class="st1" d="M103.2,38.2c-3.7-0.7-8.1-0.8-11.5,0.9c-4.2,2.2-5.7,7.8-3.3,11.8c3.7,6.1,13.7,6.7,20,6.4
		c2.8-0.1,2.8-4.5,0-4.4c-4.6,0.2-10.3-0.1-14.3-2.5c-2.9-1.7-3.8-5.7-0.3-7.5c2.3-1.2,5.7-0.9,8.1-0.5
		C104.8,42.9,106,38.7,103.2,38.2z"/>
	<path class="st1" d="M66.1,133.1c-7.4,9.3-9.5,19.9-8.4,31.6c0.3,2.8,4.7,2.8,4.4,0c-1-10.5,0.4-20.1,7.1-28.5
		C70.9,134,67.8,130.9,66.1,133.1z"/>
	<path class="st1" d="M81.1,62.2c-3.3-0.5-7.9-4.4-9.9-8.6c-0.6-1.3-0.3-3.1-2.6-3.2c-3.2-0.2-0.9,6.2,0.2,7.8c3,4.3,7,6.7,12.3,7.1
		C84,65.5,84,62.7,81.1,62.2z"/>
	<path class="st1" d="M82.5,157.9c15.3,12.3,30.7,20.3,50.9,17.6c15.4-2,31.7-9.1,38.9-23.7c1.2-2.5-2.5-4.8-3.8-2.2
		c-6.8,13.8-23,20.3-37.6,21.8c-18,1.8-31.7-5.7-45.3-16.6C83.5,153,80.3,156.1,82.5,157.9z"/>
</g>
</svg>
