<?xml version="1.0" encoding="utf-8"?>
<!-- Generator: Adobe Illustrator 25.4.1, SVG Export Plug-In . SVG Version: 6.00 Build 0)  -->
<svg version="1.1" id="Laag_1" xmlns="http://www.w3.org/2000/svg" xmlns:xlink="http://www.w3.org/1999/xlink" x="0px" y="0px"
	 viewBox="0 0 210 210" style="enable-background:new 0 0 210 210;" xml:space="preserve">
<style type="text/css">
	.st0{fill-rule:evenodd;clip-rule:evenodd;fill:#FEF46C;}
	.st1{fill-rule:evenodd;clip-rule:evenodd;fill:url(#SVGID_1_);}
	.st2{fill-rule:evenodd;clip-rule:evenodd;fill:url(#SVGID_00000078748753088145117950000017498540979476323488_);}
	.st3{fill-rule:evenodd;clip-rule:evenodd;fill:url(#SVGID_00000057839343420123391870000010231854949628026789_);}
	.st4{fill-rule:evenodd;clip-rule:evenodd;fill:url(#SVGID_00000151502790511730589150000003902097334493292475_);}
	.st5{fill-rule:evenodd;clip-rule:evenodd;fill:url(#SVGID_00000030458714182270341210000013132129264969749674_);}
	.st6{fill-rule:evenodd;clip-rule:evenodd;fill:url(#SVGID_00000145765166389441035430000016661931705555989901_);}
	.st7{fill-rule:evenodd;clip-rule:evenodd;fill:#191919;}
	.st8{fill:#FFFFB3;}
	.st9{fill:url(#SVGID_00000005248484497808194760000014454580476808311193_);}
	.st10{fill:url(#SVGID_00000106847785308655831120000010448894829735835522_);}
	.st11{opacity:0.35;fill-rule:evenodd;clip-rule:evenodd;fill:url(#SVGID_00000103251801448165770290000010202406347820328321_);}
	.st12{fill-rule:evenodd;clip-rule:evenodd;fill:#FFFFFF;}
	.st13{opacity:0.15;fill-rule:evenodd;clip-rule:evenodd;fill:#FFFFFF;}
	.st14{fill:url(#SVGID_00000086680847405161791630000011648122084135439495_);}
	.st15{fill:url(#SVGID_00000088830116399646841210000016179797711241318554_);}
	.st16{fill-rule:evenodd;clip-rule:evenodd;fill:#FFD773;}
	.st17{fill-rule:evenodd;clip-rule:evenodd;fill:url(#SVGID_00000151512749612548234820000005629191151239368125_);}
	.st18{fill-rule:evenodd;clip-rule:evenodd;fill:url(#SVGID_00000059997049015713445240000017656101203207199652_);}
	.st19{fill-rule:evenodd;clip-rule:evenodd;fill:url(#SVGID_00000137838082383984927020000003257921905129838728_);}
	.st20{fill-rule:evenodd;clip-rule:evenodd;fill:url(#SVGID_00000090294513268213692260000016796953329039075465_);}
	.st21{fill-rule:evenodd;clip-rule:evenodd;fill:none;}
	.st22{fill-rule:evenodd;clip-rule:evenodd;fill:url(#SVGID_00000046312924838893152100000001238145981414445466_);}
	.st23{fill-rule:evenodd;clip-rule:evenodd;fill:url(#SVGID_00000155111906259463732330000008587241938861669819_);}
	.st24{fill-rule:evenodd;clip-rule:evenodd;fill:url(#SVGID_00000060005244881251104570000012575312639929807515_);}
	.st25{fill-rule:evenodd;clip-rule:evenodd;fill:url(#SVGID_00000110468434182644800920000009594357747499699135_);}
	.st26{fill-rule:evenodd;clip-rule:evenodd;fill:url(#SVGID_00000152242790002664048400000001240431243163774088_);}
	.st27{fill-rule:evenodd;clip-rule:evenodd;fill:#B2B8BC;}
</style>
<g>
	<g>
		<g>
			<path class="st0" d="M105,14.5c50,0,90.5,40.5,90.5,90.5S155,195.5,105,195.5S14.5,155,14.5,105S55,14.5,105,14.5z"/>
			<radialGradient id="SVGID_1_" cx="103.4236" cy="82.1725" r="122.3742" gradientUnits="userSpaceOnUse">
				<stop  offset="0" style="stop-color:#FFAA00;stop-opacity:0.15"/>
				<stop  offset="1" style="stop-color:#FFA200"/>
			</radialGradient>
			<path class="st1" d="M105,14.5c50,0,90.5,40.5,90.5,90.5S155,195.5,105,195.5S14.5,155,14.5,105S55,14.5,105,14.5z"/>
			
				<radialGradient id="SVGID_00000030446199794668013660000017106499953376089279_" cx="104.1952" cy="96.7582" r="120.6946" gradientUnits="userSpaceOnUse">
				<stop  offset="0.4507" style="stop-color:#FFAA00;stop-opacity:0"/>
				<stop  offset="0.9352" style="stop-color:#B85F06;stop-opacity:0.882"/>
				<stop  offset="1" style="stop-color:#A65607"/>
			</radialGradient>
			<path style="fill-rule:evenodd;clip-rule:evenodd;fill:url(#SVGID_00000030446199794668013660000017106499953376089279_);" d="
				M105,14.5c50,0,90.5,40.5,90.5,90.5S155,195.5,105,195.5S14.5,155,14.5,105S55,14.5,105,14.5z"/>
			
				<radialGradient id="SVGID_00000090989749051963727030000001938413917142131341_" cx="103.6893" cy="91.6991" r="105.5244" gradientUnits="userSpaceOnUse">
				<stop  offset="0.6234" style="stop-color:#FFAA00;stop-opacity:0"/>
				<stop  offset="0.9293" style="stop-color:#C47204;stop-opacity:0.8203"/>
				<stop  offset="1" style="stop-color:#B55D05"/>
			</radialGradient>
			<path style="fill-rule:evenodd;clip-rule:evenodd;fill:url(#SVGID_00000090989749051963727030000001938413917142131341_);" d="
				M105,14.5c50,0,90.5,40.5,90.5,90.5S155,195.5,105,195.5S14.5,155,14.5,105S55,14.5,105,14.5z"/>
			
				<radialGradient id="SVGID_00000173147179034366620290000005946455922723967644_" cx="104.6633" cy="106.8983" r="92.9646" gradientUnits="userSpaceOnUse">
				<stop  offset="0.8743" style="stop-color:#FFAA00;stop-opacity:0"/>
				<stop  offset="0.9126" style="stop-color:#FFA200;stop-opacity:0"/>
				<stop  offset="0.9416" style="stop-color:#F89408;stop-opacity:0.3315"/>
				<stop  offset="0.9982" style="stop-color:#E6681C;stop-opacity:0.9796"/>
				<stop  offset="1" style="stop-color:#E5661D"/>
			</radialGradient>
			<path style="fill-rule:evenodd;clip-rule:evenodd;fill:url(#SVGID_00000173147179034366620290000005946455922723967644_);" d="
				M105,14.5c50,0,90.5,40.5,90.5,90.5S155,195.5,105,195.5S14.5,155,14.5,105S55,14.5,105,14.5z"/>
			
				<radialGradient id="SVGID_00000132074237023859546670000005293760171894357656_" cx="106.0951" cy="74.8903" r="151.3034" gradientUnits="userSpaceOnUse">
				<stop  offset="0" style="stop-color:#FFFFFF;stop-opacity:0.5"/>
				<stop  offset="0.168" style="stop-color:#FFFCD7;stop-opacity:0.3845"/>
				<stop  offset="0.5425" style="stop-color:#FFF373;stop-opacity:0.1271"/>
				<stop  offset="0.7386" style="stop-color:#FFEF40;stop-opacity:0"/>
			</radialGradient>
			<path style="fill-rule:evenodd;clip-rule:evenodd;fill:url(#SVGID_00000132074237023859546670000005293760171894357656_);" d="
				M105,14.5c50,0,90.5,40.5,90.5,90.5S155,195.5,105,195.5S14.5,155,14.5,105S55,14.5,105,14.5z"/>
		</g>
		
			<linearGradient id="SVGID_00000078025069616867076390000009634013205680848541_" gradientUnits="userSpaceOnUse" x1="105" y1="190.5301" x2="105" y2="19.4699">
			<stop  offset="0.6" style="stop-color:#FFF480;stop-opacity:0"/>
			<stop  offset="1" style="stop-color:#FFFFFF;stop-opacity:0.95"/>
		</linearGradient>
		<path style="fill-rule:evenodd;clip-rule:evenodd;fill:url(#SVGID_00000078025069616867076390000009634013205680848541_);" d="
			M105,19.5c45.4,0,82.2,38.3,82.2,85.5s-36.8,85.5-82.2,85.5S22.8,152.2,22.8,105S59.6,19.5,105,19.5z"/>
	</g>
	<g>
		<path class="st7" d="M178.2,86.2c0,0,3.5,42.8-32.9,42.8c-39.5,0-26.4-36.2-38.7-36.2c-12.3,0-0.8,36.2-38.7,36.2
			c-36.4,0-32.9-42.8-32.9-42.8s-4.9-0.7-4.9-3.3c0-2.6,0.1-3.4,1.6-4.9c1.6-1.6,6.6-1.6,6.6-1.6s4.6-6.6,24.7-6.6
			c26,0,32.9,8.2,36.2,8.2s6.6,0,6.6,0s3.3,0,8.2,0c4.9,0,10.2-8.2,36.2-8.2c20.1,0,24.7,6.6,24.7,6.6s5,0.1,6.6,1.6
			c1.6,1.6,1.6,2.4,1.6,4.9C183.1,85.5,178.2,86.2,178.2,86.2z M96,86.2c0-1.6-6.2-9.9-29.6-9.9c0,0-23-2.2-23,18.1s7.3,28,26.3,28
			C94.3,122.4,96,101,96,91.1C96,87.2,96,87.9,96,86.2z M146.9,76.3c-23.4,0-29.6,8.3-29.6,9.9c0,1.6,0,1,0,4.9
			c0,9.9,0,31.3,26.3,31.3c19,0,26.3-7.7,26.3-28S146.9,76.3,146.9,76.3z"/>
		<ellipse class="st8" cx="133.5" cy="100.8" rx="9.5" ry="14.4"/>
		
			<radialGradient id="SVGID_00000048496008624474381720000010935371736819332254_" cx="79.0478" cy="119.607" r="10.147" gradientTransform="matrix(0.944 0 0 1.4673 58.8111 -75.0371)" gradientUnits="userSpaceOnUse">
			<stop  offset="0.1564" style="stop-color:#A66707"/>
			<stop  offset="0.3601" style="stop-color:#A36407"/>
			<stop  offset="0.5236" style="stop-color:#995C09"/>
			<stop  offset="0.6733" style="stop-color:#884E0B"/>
			<stop  offset="0.8146" style="stop-color:#703B0E"/>
			<stop  offset="0.9489" style="stop-color:#522211"/>
			<stop  offset="1" style="stop-color:#441713"/>
		</radialGradient>
		<ellipse style="fill:url(#SVGID_00000048496008624474381720000010935371736819332254_);" cx="133.5" cy="99" rx="9.5" ry="14.4"/>
		<ellipse class="st8" cx="76.5" cy="100.8" rx="9.5" ry="14.4"/>
		
			<radialGradient id="SVGID_00000001632505848266824040000011470003689001602231_" cx="118.8435" cy="119.607" r="10.147" gradientTransform="matrix(-0.944 0 0 1.4673 188.7882 -75.0371)" gradientUnits="userSpaceOnUse">
			<stop  offset="0.1564" style="stop-color:#A66707"/>
			<stop  offset="0.3601" style="stop-color:#A36407"/>
			<stop  offset="0.5236" style="stop-color:#995C09"/>
			<stop  offset="0.6733" style="stop-color:#884E0B"/>
			<stop  offset="0.8146" style="stop-color:#703B0E"/>
			<stop  offset="0.9489" style="stop-color:#522211"/>
			<stop  offset="1" style="stop-color:#441713"/>
		</radialGradient>
		<ellipse style="fill:url(#SVGID_00000001632505848266824040000011470003689001602231_);" cx="76.5" cy="99" rx="9.5" ry="14.4"/>
		
			<linearGradient id="SVGID_00000115500884739917001480000009090007551494260149_" gradientUnits="userSpaceOnUse" x1="106.6448" y1="113.9109" x2="106.6448" y2="54.6977" gradientTransform="matrix(1 0 0 0.9544 0 22.4887)">
			<stop  offset="0" style="stop-color:#D98300;stop-opacity:0"/>
			<stop  offset="9.568126e-02" style="stop-color:#D17E00;stop-opacity:4.784063e-02"/>
			<stop  offset="0.2471" style="stop-color:#BA7000;stop-opacity:0.1235"/>
			<stop  offset="0.4352" style="stop-color:#955A00;stop-opacity:0.2176"/>
			<stop  offset="0.6526" style="stop-color:#613B00;stop-opacity:0.3263"/>
			<stop  offset="0.8918" style="stop-color:#201300;stop-opacity:0.4459"/>
			<stop  offset="1" style="stop-color:#000000;stop-opacity:0.5"/>
		</linearGradient>
		
			<path style="opacity:0.35;fill-rule:evenodd;clip-rule:evenodd;fill:url(#SVGID_00000115500884739917001480000009090007551494260149_);" d="
			M178.2,90.4c0,0,3.5,40.8-32.9,40.8c-39.5,0-26.4-34.5-38.7-34.5c-12.3,0-0.8,34.5-38.7,34.5c-36.4,0-32.9-40.8-32.9-40.8
			s-4.9-0.7-4.9-3.1c0-2.4,0.1-3.2,1.6-4.7c1.6-1.5,6.6-1.6,6.6-1.6s4.6-6.3,24.7-6.3c26,0,32.9,7.8,36.2,7.8s6.6,0,6.6,0
			s3.3,0,8.2,0c4.9,0,10.2-7.8,36.2-7.8c20.1,0,24.7,6.3,24.7,6.3s5,0.1,6.6,1.6c1.6,1.5,1.6,2.3,1.6,4.7
			C183.1,89.7,178.2,90.4,178.2,90.4z M96,90.4c0-1.6-6.2-9.4-29.6-9.4c0,0-23-2.1-23,17.3s7.3,26.7,26.3,26.7
			c24.7,0,26.3-20.4,26.3-29.8C96,91.4,96,92,96,90.4z M146.9,81c-23.4,0-29.6,7.9-29.6,9.4c0,1.5,0,1,0,4.7c0,9.4,0,29.8,26.3,29.8
			c19,0,26.3-7.3,26.3-26.7S146.9,81,146.9,81z"/>
		<path class="st7" d="M178.2,86.2c0,0,3.5,42.8-32.9,42.8c-39.5,0-26.4-36.2-38.7-36.2c-12.3,0-0.8,36.2-38.7,36.2
			c-36.4,0-32.9-42.8-32.9-42.8s-4.9-0.7-4.9-3.3c0-2.6,0.1-3.4,1.6-4.9c1.6-1.6,6.6-1.6,6.6-1.6s4.6-6.6,24.7-6.6
			c26,0,32.9,8.2,36.2,8.2s6.6,0,6.6,0s3.3,0,8.2,0c4.9,0,10.2-8.2,36.2-8.2c20.1,0,24.7,6.6,24.7,6.6s5,0.1,6.6,1.6
			c1.6,1.6,1.6,2.4,1.6,4.9C183.1,85.5,178.2,86.2,178.2,86.2z M96,86.2c0-1.6-6.2-9.9-29.6-9.9c0,0-23-2.2-23,18.1s7.3,28,26.3,28
			C94.3,122.4,96,101,96,91.1C96,87.2,96,87.9,96,86.2z M146.9,76.3c-23.4,0-29.6,8.3-29.6,9.9c0,1.6,0,1,0,4.9
			c0,9.9,0,31.3,26.3,31.3c19,0,26.3-7.7,26.3-28S146.9,76.3,146.9,76.3z"/>
		<path class="st12" d="M35.1,89.5C35.1,89.5,35.1,89.5,35.1,89.5C35,89.9,35,90.4,35,90.9C35.1,90,35.1,89.5,35.1,89.5z"/>
		<path class="st13" d="M31.8,81.3c1.6-1.6,6.6-1.6,6.6-1.6S43,73,63.1,73c26,0,32.9,8.2,36.2,8.2s6.6,0,6.6,0s3.3,0,8.2,0
			c4.9,0,10.2-8.2,36.2-8.2c20.1,0,24.7,6.6,24.7,6.6s5,0.1,6.6,1.6c0.9,0.9,1.3,1.5,1.5,2.4c0.1-0.2,0.2-0.5,0.2-0.8
			c0-2.6-0.1-3.4-1.6-4.9s-6.6-1.6-6.6-1.6s-4.6-6.6-24.7-6.6c-26,0-31.3,8.2-36.2,8.2c-4.9,0-8.2,0-8.2,0s-3.3,0-6.6,0
			s-10.2-8.2-36.2-8.2c-20.1,0-24.7,6.6-24.7,6.6s-5,0.1-6.6,1.6s-1.6,2.4-1.6,4.9c0,0.3,0.1,0.5,0.2,0.8
			C30.5,82.8,30.9,82.2,31.8,81.3z"/>
		<path class="st13" d="M69.6,125.7c24.7,0,26.3-21.4,26.3-31.3c0-1.9,0-2.8,0-3.3c0,9.9-1.6,31.3-26.3,31.3
			c-18.4,0-25.8-7.2-26.3-26c0,0.4,0,0.9,0,1.3C43.3,118,50.6,125.7,69.6,125.7z"/>
		<path class="st13" d="M143.7,125.7c19,0,26.3-7.7,26.3-28c0-0.5,0-0.9,0-1.3c-0.5,18.8-7.9,26-26.3,26
			c-26.3,0-26.3-21.4-26.3-31.3c0,0.5,0,1.4,0,3.3C117.3,104.3,117.3,125.7,143.7,125.7z"/>
		<path class="st12" d="M178.2,89.5c0,0,0,0.5,0.1,1.4C178.3,90.4,178.3,89.9,178.2,89.5C178.2,89.5,178.2,89.5,178.2,89.5z"/>
		<path class="st12" d="M35.1,88.3C35.1,88.3,35.1,88.3,35.1,88.3C35,88.7,35,89.1,35,89.6C35.1,88.8,35.1,88.3,35.1,88.3z"/>
		<path class="st13" d="M174.9,76.3c0,0-4.6-6.6-24.7-6.6c-26,0-31.3,8.2-36.2,8.2c-4.9,0-8.2,0-8.2,0s-3.3,0-6.6,0
			s-10.2-8.2-36.2-8.2c-20.1,0-24.7,6.6-24.7,6.6s-5,0.1-6.6,1.6c-1.3,1.3-1.6,2.1-1.6,3.8c0,0.2,0.1,0.4,0.2,0.6
			c0.2-0.9,0.6-1.5,1.5-2.4c1.6-1.6,6.6-1.6,6.6-1.6s4.6-6.6,24.7-6.6c26,0,32.9,8.2,36.2,8.2s6.6,0,6.6,0s3.3,0,8.2,0
			c4.9,0,10.2-8.2,36.2-8.2c20.1,0,24.7,6.6,24.7,6.6s5,0.1,6.6,1.6c0.9,0.9,1.3,1.5,1.5,2.4c0.1-0.2,0.1-0.4,0.2-0.6
			c-0.1-1.7-0.3-2.5-1.6-3.8C179.9,76.4,174.9,76.3,174.9,76.3z"/>
		<path class="st13" d="M69.6,122.4c-18.4,0-25.8-7.2-26.3-26c0,0.3,0,0.5,0,0.8c0.2,19.7,7.5,27.2,26.3,27.2
			c24.7,0,26.3-21.4,26.3-31.3c0-1.1,0-1.7,0-2.1C96,101,94.3,122.4,69.6,122.4z"/>
		<path class="st13" d="M143.7,124.5c18.8,0,26.1-7.5,26.3-27.2c0-0.3,0-0.6,0-0.8c-0.5,18.8-7.9,26-26.3,26
			c-26.3,0-26.3-21.4-26.3-31.3c0,0.4,0,1,0,2.1C117.3,103.1,117.3,124.5,143.7,124.5z"/>
		<path class="st12" d="M178.2,88.3c0,0,0,0.5,0.1,1.4C178.3,89.1,178.3,88.7,178.2,88.3C178.2,88.3,178.2,88.3,178.2,88.3z"/>
		<path class="st12" d="M35.1,87.2C35.1,87.2,35.1,87.2,35.1,87.2C35,87.6,35,88.1,35,88.6C35.1,87.7,35.1,87.2,35.1,87.2z"/>
		<path class="st12" d="M178.2,87.2c0,0,0,0.5,0.1,1.4C178.3,88.1,178.3,87.6,178.2,87.2C178.2,87.2,178.2,87.2,178.2,87.2z"/>
		<ellipse class="st8" cx="133.5" cy="100.8" rx="9.5" ry="14.4"/>
		
			<radialGradient id="SVGID_00000161590221816247790340000016046759036536487341_" cx="79.0478" cy="119.607" r="10.147" gradientTransform="matrix(0.944 0 0 1.4673 58.8111 -75.0371)" gradientUnits="userSpaceOnUse">
			<stop  offset="0.1564" style="stop-color:#A66707"/>
			<stop  offset="0.3601" style="stop-color:#A36407"/>
			<stop  offset="0.5236" style="stop-color:#995C09"/>
			<stop  offset="0.6733" style="stop-color:#884E0B"/>
			<stop  offset="0.8146" style="stop-color:#703B0E"/>
			<stop  offset="0.9489" style="stop-color:#522211"/>
			<stop  offset="1" style="stop-color:#441713"/>
		</radialGradient>
		<ellipse style="fill:url(#SVGID_00000161590221816247790340000016046759036536487341_);" cx="133.5" cy="99" rx="9.5" ry="14.4"/>
		<ellipse class="st8" cx="76.5" cy="100.8" rx="9.5" ry="14.4"/>
		
			<radialGradient id="SVGID_00000084513527434990060700000015365981455797818803_" cx="118.8435" cy="119.607" r="10.147" gradientTransform="matrix(-0.944 0 0 1.4673 188.7882 -75.0371)" gradientUnits="userSpaceOnUse">
			<stop  offset="0.1564" style="stop-color:#A66707"/>
			<stop  offset="0.3601" style="stop-color:#A36407"/>
			<stop  offset="0.5236" style="stop-color:#995C09"/>
			<stop  offset="0.6733" style="stop-color:#884E0B"/>
			<stop  offset="0.8146" style="stop-color:#703B0E"/>
			<stop  offset="0.9489" style="stop-color:#522211"/>
			<stop  offset="1" style="stop-color:#441713"/>
		</radialGradient>
		<ellipse style="fill:url(#SVGID_00000084513527434990060700000015365981455797818803_);" cx="76.5" cy="99" rx="9.5" ry="14.4"/>
		<path class="st13" d="M174.9,76.3c0,0-4.6-6.6-24.7-6.6c-26,0-31.3,8.2-36.2,8.2c-4.9,0-8.2,0-8.2,0s-3.3,0-6.6,0
			s-10.2-8.2-36.2-8.2c-20.1,0-24.7,6.6-24.7,6.6s-5,0.1-6.6,1.6c-1.1,1.1-1.5,1.9-1.6,3.1c0,0.1,0.1,0.2,0.1,0.3
			c0.2-0.9,0.6-1.5,1.5-2.4c1.6-1.6,6.6-1.6,6.6-1.6s4.6-6.6,24.7-6.6c26,0,32.9,8.2,36.2,8.2s6.6,0,6.6,0s3.3,0,8.2,0
			c4.9,0,10.2-8.2,36.2-8.2c20.1,0,24.7,6.6,24.7,6.6s5,0.1,6.6,1.6c0.9,0.9,1.3,1.5,1.5,2.4c0-0.1,0.1-0.2,0.1-0.3
			c-0.1-1.2-0.5-2-1.6-3.1C179.9,76.4,174.9,76.3,174.9,76.3z"/>
		<path class="st13" d="M69.6,122.4c-18.4,0-25.8-7.2-26.3-26c0,0.1,0,0.3,0,0.4c0.3,19.3,7.7,26.6,26.3,26.6
			C94.3,123.4,96,102,96,92.2c0-0.5,0-0.8,0-1C96,101,94.3,122.4,69.6,122.4z"/>
		<path class="st13" d="M143.7,123.4c18.6,0,26-7.3,26.3-26.6c0-0.1,0-0.3,0-0.4c-0.5,18.8-7.9,26-26.3,26
			c-26.3,0-26.3-21.4-26.3-31.3c0,0.2,0,0.6,0,1C117.3,102,117.3,123.4,143.7,123.4z"/>
	</g>
	<g>
		<path class="st16" d="M105,161.4c-32.1,0-42.8-19.1-42.8-22.5c0-5.1,16,13.5,43.1,13.6c26.9,0.1,42.4-18.2,42.4-13.1
			C147.8,142.8,137.1,161.4,105,161.4z"/>
		
			<radialGradient id="SVGID_00000144297668998755993330000001026225418866905515_" cx="105.2268" cy="151.3954" r="26.531" gradientUnits="userSpaceOnUse">
			<stop  offset="9.497207e-02" style="stop-color:#875200"/>
			<stop  offset="0.2612" style="stop-color:#8A5400;stop-opacity:0.7559"/>
			<stop  offset="0.4061" style="stop-color:#955A00;stop-opacity:0.5431"/>
			<stop  offset="0.543" style="stop-color:#A76500;stop-opacity:0.342"/>
			<stop  offset="0.6742" style="stop-color:#C07400;stop-opacity:0.1493"/>
			<stop  offset="0.7759" style="stop-color:#D98300;stop-opacity:0"/>
		</radialGradient>
		<path style="fill-rule:evenodd;clip-rule:evenodd;fill:url(#SVGID_00000144297668998755993330000001026225418866905515_);" d="
			M77.8,152.1c0,14,12.2,25.4,27.2,25.4s27.2-11.4,27.2-25.4H77.8z"/>
		
			<radialGradient id="SVGID_00000147912909474299002230000000601733303897688986_" cx="105" cy="127.8205" r="48.6134" gradientTransform="matrix(1 0 0 0.6043 0 50.5813)" gradientUnits="userSpaceOnUse">
			<stop  offset="0.5151" style="stop-color:#884E0B"/>
			<stop  offset="1" style="stop-color:#522211"/>
		</radialGradient>
		<path style="fill-rule:evenodd;clip-rule:evenodd;fill:url(#SVGID_00000147912909474299002230000000601733303897688986_);" d="
			M105,159.8c-32.1,0-42.8-19.1-42.8-22.5c0-5.1,16,13.5,43.1,13.6c26.9,0.1,42.4-18.2,42.4-13.1C147.8,141.1,137.1,159.8,105,159.8
			z"/>
		
			<radialGradient id="SVGID_00000073702942127546843540000003008458230750699664_" cx="105" cy="127.8205" r="48.6134" gradientTransform="matrix(1 0 0 0.6043 0 50.5813)" gradientUnits="userSpaceOnUse">
			<stop  offset="0.7933" style="stop-color:#562511"/>
			<stop  offset="0.9752" style="stop-color:#884E0B;stop-opacity:0"/>
		</radialGradient>
		<path style="fill-rule:evenodd;clip-rule:evenodd;fill:url(#SVGID_00000073702942127546843540000003008458230750699664_);" d="
			M105,159.8c-32.1,0-42.8-19.1-42.8-22.5c0-5.1,16,13.5,43.1,13.6c26.9,0.1,42.4-18.2,42.4-13.1C147.8,141.1,137.1,159.8,105,159.8
			z"/>
		
			<radialGradient id="SVGID_00000133507005214234956760000018336481466339341474_" cx="111.8188" cy="152.0981" r="8.4955" gradientTransform="matrix(1 0 0 1.6316 0 -96.0666)" gradientUnits="userSpaceOnUse">
			<stop  offset="0.4704" style="stop-color:#F6F8F8"/>
			<stop  offset="0.6226" style="stop-color:#F0F2F2"/>
			<stop  offset="0.8254" style="stop-color:#DFE1E2"/>
			<stop  offset="1" style="stop-color:#CBCDCF"/>
		</radialGradient>
		<path style="fill-rule:evenodd;clip-rule:evenodd;fill:url(#SVGID_00000133507005214234956760000018336481466339341474_);" d="
			M110.3,166.2c9.8,0,12.8-14.1,10.9-17.4c-5.3,1.4-10.5,2.1-15.8,2.1c0,4.7,0,10.3,0,10.3S104.6,166.2,110.3,166.2z"/>
		<path class="st21" d="M105,159.8c-32.1,0-42.8-19.1-42.8-22.5s7.1,3.8,19.9,8.9c15.2,6.1,30.6,6.3,45.8,0.4
			c12.7-5,19.9-12,19.9-8.7C147.8,141.1,137.1,159.8,105,159.8z"/>
		
			<radialGradient id="SVGID_00000126281455281772909470000004045577008414461119_" cx="111.8188" cy="152.0981" r="8.4955" gradientTransform="matrix(1 0 0 1.6316 0 -96.0666)" gradientUnits="userSpaceOnUse">
			<stop  offset="0.4704" style="stop-color:#F6F8F8"/>
			<stop  offset="0.6226" style="stop-color:#F0F2F2"/>
			<stop  offset="0.8254" style="stop-color:#DFE1E2"/>
			<stop  offset="1" style="stop-color:#CBCDCF"/>
		</radialGradient>
		<path style="fill-rule:evenodd;clip-rule:evenodd;fill:url(#SVGID_00000126281455281772909470000004045577008414461119_);" d="
			M110.3,166.2c9.8,0,12.8-14.1,10.9-17.4c-5.3,1.4-10.5,2.1-15.8,2.1c0,4.7,0,10.3,0,10.3S104.6,166.2,110.3,166.2z"/>
		
			<radialGradient id="SVGID_00000040564038919561090940000003018519867125235632_" cx="109.1691" cy="148.0329" r="15.0543" gradientTransform="matrix(1 0 0 1.1039 0 -15.3785)" gradientUnits="userSpaceOnUse">
			<stop  offset="0.4704" style="stop-color:#F6F8F8;stop-opacity:0"/>
			<stop  offset="0.5833" style="stop-color:#F0F2F2;stop-opacity:0.2132"/>
			<stop  offset="0.7341" style="stop-color:#DFE1E2;stop-opacity:0.498"/>
			<stop  offset="0.9056" style="stop-color:#C4C5C7;stop-opacity:0.8217"/>
			<stop  offset="1" style="stop-color:#B2B3B5"/>
		</radialGradient>
		<path style="fill-rule:evenodd;clip-rule:evenodd;fill:url(#SVGID_00000040564038919561090940000003018519867125235632_);" d="
			M110.3,166.2c9.8,0,12.8-14.1,10.9-17.4c-5.3,1.4-10.5,2.1-15.8,2.1c0,4.7,0,10.3,0,10.3S104.6,166.2,110.3,166.2z"/>
		
			<radialGradient id="SVGID_00000132766888117969371150000002626720233110615191_" cx="-1238.4219" cy="152.0981" r="8.4955" gradientTransform="matrix(-1 0 0 1.6316 -1139.6267 -96.0666)" gradientUnits="userSpaceOnUse">
			<stop  offset="0.4704" style="stop-color:#F6F8F8"/>
			<stop  offset="0.6226" style="stop-color:#F0F2F2"/>
			<stop  offset="0.8254" style="stop-color:#DFE1E2"/>
			<stop  offset="1" style="stop-color:#CBCDCF"/>
		</radialGradient>
		<path style="fill-rule:evenodd;clip-rule:evenodd;fill:url(#SVGID_00000132766888117969371150000002626720233110615191_);" d="
			M100.4,166.2c-9.8,0-12.8-14.1-10.9-17.4c5.3,1.4,10.5,2.1,15.8,2.1c0,4.7,0,10.3,0,10.3S106,166.2,100.4,166.2z"/>
		
			<radialGradient id="SVGID_00000110435556967936435140000015067057910884814977_" cx="-1238.4219" cy="152.0981" r="8.4955" gradientTransform="matrix(-1 0 0 1.6316 -1139.6267 -96.0666)" gradientUnits="userSpaceOnUse">
			<stop  offset="0.4704" style="stop-color:#F6F8F8"/>
			<stop  offset="0.6226" style="stop-color:#F0F2F2"/>
			<stop  offset="0.8254" style="stop-color:#DFE1E2"/>
			<stop  offset="1" style="stop-color:#CBCDCF"/>
		</radialGradient>
		<path style="fill-rule:evenodd;clip-rule:evenodd;fill:url(#SVGID_00000110435556967936435140000015067057910884814977_);" d="
			M100.4,166.2c-9.8,0-12.8-14.1-10.9-17.4c5.3,1.4,10.5,2.1,15.8,2.1c0,4.7,0,10.3,0,10.3S106,166.2,100.4,166.2z"/>
		
			<radialGradient id="SVGID_00000100377780171589118550000005139954999708631215_" cx="-1241.0715" cy="148.0329" r="15.0543" gradientTransform="matrix(-1 0 0 1.1039 -1139.6267 -15.3785)" gradientUnits="userSpaceOnUse">
			<stop  offset="0.4704" style="stop-color:#F6F8F8;stop-opacity:0"/>
			<stop  offset="0.5833" style="stop-color:#F0F2F2;stop-opacity:0.2132"/>
			<stop  offset="0.7341" style="stop-color:#DFE1E2;stop-opacity:0.498"/>
			<stop  offset="0.9056" style="stop-color:#C4C5C7;stop-opacity:0.8217"/>
			<stop  offset="1" style="stop-color:#B2B3B5"/>
		</radialGradient>
		<path style="fill-rule:evenodd;clip-rule:evenodd;fill:url(#SVGID_00000100377780171589118550000005139954999708631215_);" d="
			M100.4,166.2c-9.8,0-12.8-14.1-10.9-17.4c5.3,1.4,10.5,2.1,15.8,2.1c0,4.7,0,10.3,0,10.3S106,166.2,100.4,166.2z"/>
		<path class="st27" d="M105.3,150.9c-0.2,0-0.5,0-0.7,0v10.8l0.7,2l0.7-2v-10.8C105.8,150.9,105.6,150.9,105.3,150.9z"/>
	</g>
</g>
</svg>
