<?xml version="1.0" encoding="utf-8"?>
<!-- Generator: Adobe Illustrator 25.4.1, SVG Export Plug-In . SVG Version: 6.00 Build 0)  -->
<svg version="1.1" id="Laag_1" xmlns="http://www.w3.org/2000/svg" xmlns:xlink="http://www.w3.org/1999/xlink" x="0px" y="0px"
	 viewBox="0 0 210 210" style="enable-background:new 0 0 210 210;" xml:space="preserve">
<style type="text/css">
	.st0{fill:url(#SVGID_1_);}
	.st1{opacity:0.5;fill:url(#SVGID_00000091013517240383641480000014190977687824606366_);}
	.st2{fill:url(#SVGID_00000036934726207035023240000012033091395607408308_);}
	.st3{fill:url(#SVGID_00000159467149090931974740000003149017319024057262_);}
	.st4{fill:url(#SVGID_00000067205371897586824200000006881267400526934164_);}
	.st5{fill-rule:evenodd;clip-rule:evenodd;fill:#FEF46C;}
	.st6{fill-rule:evenodd;clip-rule:evenodd;fill:url(#SVGID_00000121969105896583405080000015936905364604156844_);}
	.st7{fill-rule:evenodd;clip-rule:evenodd;fill:url(#SVGID_00000124162314188382378770000000429821922550855592_);}
	.st8{fill-rule:evenodd;clip-rule:evenodd;fill:url(#SVGID_00000124146141899217956700000016314755672708135357_);}
	.st9{fill-rule:evenodd;clip-rule:evenodd;fill:url(#SVGID_00000128465303019579296970000016891107965471899525_);}
	.st10{fill-rule:evenodd;clip-rule:evenodd;fill:url(#SVGID_00000048486998605528789970000015656249446672092318_);}
	.st11{fill-rule:evenodd;clip-rule:evenodd;fill:url(#SVGID_00000130622254321742822010000002236380080624784306_);}
	.st12{fill:url(#SVGID_00000134241485030281605450000012911805970556670112_);}
	.st13{fill-rule:evenodd;clip-rule:evenodd;fill:url(#SVGID_00000120561172176801868480000006027924340150655898_);}
	.st14{fill-rule:evenodd;clip-rule:evenodd;fill:url(#SVGID_00000010270568583019998730000004747809129681165711_);}
	.st15{fill-rule:evenodd;clip-rule:evenodd;fill:#FFFFB3;}
	.st16{fill-rule:evenodd;clip-rule:evenodd;fill:url(#SVGID_00000105385591756912216230000010590788278297288075_);}
	.st17{fill-rule:evenodd;clip-rule:evenodd;fill:url(#SVGID_00000160173763531592748820000012045291240461642631_);}
	.st18{fill-rule:evenodd;clip-rule:evenodd;fill:url(#SVGID_00000026844843052300337620000003756166879491084479_);}
	.st19{fill-rule:evenodd;clip-rule:evenodd;fill:url(#SVGID_00000078741703321080648390000008451181220114059686_);}
	.st20{fill-rule:evenodd;clip-rule:evenodd;fill:url(#SVGID_00000168804238649681487400000003663182730182320544_);}
	.st21{fill-rule:evenodd;clip-rule:evenodd;fill:url(#SVGID_00000145740210131756171100000006073897558059465613_);}
	.st22{fill-rule:evenodd;clip-rule:evenodd;fill:#FCC430;}
	.st23{fill-rule:evenodd;clip-rule:evenodd;fill:url(#SVGID_00000161596499828738620140000015929577576561897088_);}
	.st24{fill-rule:evenodd;clip-rule:evenodd;fill:url(#SVGID_00000152245989023677171470000003010813299088074408_);}
	.st25{fill:#FBAF49;}
	.st26{fill:url(#SVGID_00000091694230113050967770000007258045215579635352_);}
	.st27{fill:url(#SVGID_00000087374071420314452840000010737789652451680915_);}
	.st28{fill:url(#SVGID_00000086662895583917631430000003878438919572143752_);}
	.st29{fill:#F9AC44;}
	.st30{fill:#FEF137;}
	.st31{fill:url(#SVGID_00000067953018379401256310000010855379848414890159_);}
	.st32{fill:url(#SVGID_00000036225158140157177290000000425499892510768008_);}
	.st33{fill:url(#SVGID_00000043446619665193112440000008829460953486658709_);}
	.st34{fill:url(#SVGID_00000117637126048500119580000009273146090300054203_);}
	.st35{fill:#5E9CF1;}
	.st36{fill:url(#SVGID_00000152960180295797930360000008786205852073093052_);}
	.st37{fill:url(#SVGID_00000094594243048866887620000013476509576648688541_);}
	.st38{fill:url(#SVGID_00000031168798501841117190000014649195374827334583_);}
	.st39{fill:#BE0D99;}
	.st40{fill:url(#SVGID_00000154396849906073425050000018095306128505243782_);}
	.st41{fill:url(#SVGID_00000152249657996029936210000003982428102066179738_);}
</style>
<g>
	<g>
		<linearGradient id="SVGID_1_" gradientUnits="userSpaceOnUse" x1="49.5328" y1="28.5615" x2="23.2257" y2="49.6869">
			<stop  offset="0" style="stop-color:#3166EA"/>
			<stop  offset="0.9693" style="stop-color:#1946AA"/>
		</linearGradient>
		<path class="st0" d="M76.7,30.5L10.8,8.7c-2.6-0.9-4.1,0.6-3.3,3.2l24.3,83.8L76.7,30.5z"/>
		
			<linearGradient id="SVGID_00000080174476850428766130000016907206294792220070_" gradientUnits="userSpaceOnUse" x1="34.2162" y1="16.445" x2="65.0105" y2="38.1093">
			<stop  offset="0" style="stop-color:#6E5AE2"/>
			<stop  offset="1" style="stop-color:#2B2275"/>
		</linearGradient>
		<polygon style="opacity:0.5;fill:url(#SVGID_00000080174476850428766130000016907206294792220070_);" points="64.1,48.8 
			74.6,33.6 44,19.7 19.5,11.6 		"/>
		
			<linearGradient id="SVGID_00000157271258259557697410000000096234415821300364_" gradientUnits="userSpaceOnUse" x1="53.8108" y1="18.4347" x2="19.9229" y2="51.0499">
			<stop  offset="0.1393" style="stop-color:#FFB3E7"/>
			<stop  offset="0.8073" style="stop-color:#ED12A8"/>
		</linearGradient>
		<path style="fill:url(#SVGID_00000157271258259557697410000000096234415821300364_);" d="M21,58.2c7-14.3,20.7-27.3,35.7-34.3
			l-9.1-3C35.7,27,24.9,36.6,17.9,47.6L21,58.2z"/>
		
			<linearGradient id="SVGID_00000001624216362951090210000007353451730692020353_" gradientUnits="userSpaceOnUse" x1="31.6609" y1="15.4155" x2="14.4783" y2="31.4844">
			<stop  offset="6.411809e-02" style="stop-color:#FFB3E7"/>
			<stop  offset="0.8073" style="stop-color:#ED12A8"/>
		</linearGradient>
		<path style="fill:url(#SVGID_00000001624216362951090210000007353451730692020353_);" d="M27.6,14.3c-5.7,3.9-10.9,8.6-15.3,13.8
			l2.7,9.3c5.6-7.8,13.1-14.8,21.3-20.2L27.6,14.3z"/>
		
			<linearGradient id="SVGID_00000038377285496768257710000007704532010105371326_" gradientUnits="userSpaceOnUse" x1="14.6359" y1="10.8689" x2="9.7039" y2="15.3236">
			<stop  offset="0" style="stop-color:#FFB3E7"/>
			<stop  offset="0.8073" style="stop-color:#ED12A8"/>
		</linearGradient>
		<path style="fill:url(#SVGID_00000038377285496768257710000007704532010105371326_);" d="M11,8.8c-1.2,1-2.4,2.1-3.5,3.1l2.5,8.5
			c2.9-3.2,6-6.2,9.4-8.9L11,8.8z"/>
	</g>
	<g>
		<g>
			<path class="st5" d="M105.6,17.2c50,0,90.5,40.5,90.5,90.5s-40.5,90.5-90.5,90.5s-90.5-40.5-90.5-90.5S55.6,17.2,105.6,17.2z"/>
			
				<radialGradient id="SVGID_00000140718794408771786010000008152997807742370454_" cx="104.0556" cy="84.7915" r="122.3742" gradientUnits="userSpaceOnUse">
				<stop  offset="0" style="stop-color:#FFAA00;stop-opacity:0.15"/>
				<stop  offset="1" style="stop-color:#FFA200"/>
			</radialGradient>
			<path style="fill-rule:evenodd;clip-rule:evenodd;fill:url(#SVGID_00000140718794408771786010000008152997807742370454_);" d="
				M105.6,17.2c50,0,90.5,40.5,90.5,90.5s-40.5,90.5-90.5,90.5s-90.5-40.5-90.5-90.5S55.6,17.2,105.6,17.2z"/>
			
				<radialGradient id="SVGID_00000054971496984534355960000000237558434475516825_" cx="104.8272" cy="99.3772" r="120.6946" gradientUnits="userSpaceOnUse">
				<stop  offset="0.4507" style="stop-color:#FFAA00;stop-opacity:0"/>
				<stop  offset="0.9352" style="stop-color:#B85F06;stop-opacity:0.882"/>
				<stop  offset="1" style="stop-color:#A65607"/>
			</radialGradient>
			<path style="fill-rule:evenodd;clip-rule:evenodd;fill:url(#SVGID_00000054971496984534355960000000237558434475516825_);" d="
				M105.6,17.2c50,0,90.5,40.5,90.5,90.5s-40.5,90.5-90.5,90.5s-90.5-40.5-90.5-90.5S55.6,17.2,105.6,17.2z"/>
			
				<radialGradient id="SVGID_00000181064900208437427060000003822604521010201248_" cx="104.3213" cy="94.3181" r="105.5244" gradientUnits="userSpaceOnUse">
				<stop  offset="0.6234" style="stop-color:#FFAA00;stop-opacity:0"/>
				<stop  offset="0.9293" style="stop-color:#C47204;stop-opacity:0.8203"/>
				<stop  offset="1" style="stop-color:#B55D05"/>
			</radialGradient>
			<path style="fill-rule:evenodd;clip-rule:evenodd;fill:url(#SVGID_00000181064900208437427060000003822604521010201248_);" d="
				M105.6,17.2c50,0,90.5,40.5,90.5,90.5s-40.5,90.5-90.5,90.5s-90.5-40.5-90.5-90.5S55.6,17.2,105.6,17.2z"/>
			
				<radialGradient id="SVGID_00000165934557256690063980000016096326390067174316_" cx="105.2953" cy="109.5173" r="92.9646" gradientUnits="userSpaceOnUse">
				<stop  offset="0.8743" style="stop-color:#FFAA00;stop-opacity:0"/>
				<stop  offset="0.9126" style="stop-color:#FFA200;stop-opacity:0"/>
				<stop  offset="0.9416" style="stop-color:#F89408;stop-opacity:0.3315"/>
				<stop  offset="0.9982" style="stop-color:#E6681C;stop-opacity:0.9796"/>
				<stop  offset="1" style="stop-color:#E5661D"/>
			</radialGradient>
			<path style="fill-rule:evenodd;clip-rule:evenodd;fill:url(#SVGID_00000165934557256690063980000016096326390067174316_);" d="
				M105.6,17.2c50,0,90.5,40.5,90.5,90.5s-40.5,90.5-90.5,90.5s-90.5-40.5-90.5-90.5S55.6,17.2,105.6,17.2z"/>
			
				<radialGradient id="SVGID_00000130645565859530850020000006984594552531267760_" cx="106.7271" cy="77.5093" r="151.3034" gradientUnits="userSpaceOnUse">
				<stop  offset="0" style="stop-color:#FFFFFF;stop-opacity:0.5"/>
				<stop  offset="0.168" style="stop-color:#FFFCD7;stop-opacity:0.3845"/>
				<stop  offset="0.5425" style="stop-color:#FFF373;stop-opacity:0.1271"/>
				<stop  offset="0.7386" style="stop-color:#FFEF40;stop-opacity:0"/>
			</radialGradient>
			<path style="fill-rule:evenodd;clip-rule:evenodd;fill:url(#SVGID_00000130645565859530850020000006984594552531267760_);" d="
				M105.6,17.2c50,0,90.5,40.5,90.5,90.5s-40.5,90.5-90.5,90.5s-90.5-40.5-90.5-90.5S55.6,17.2,105.6,17.2z"/>
		</g>
		
			<linearGradient id="SVGID_00000066503686227763028610000011563577608576218001_" gradientUnits="userSpaceOnUse" x1="105.632" y1="193.1491" x2="105.632" y2="22.0889">
			<stop  offset="0.6" style="stop-color:#FFF480;stop-opacity:0"/>
			<stop  offset="1" style="stop-color:#FFFFFF;stop-opacity:0.95"/>
		</linearGradient>
		<path style="fill-rule:evenodd;clip-rule:evenodd;fill:url(#SVGID_00000066503686227763028610000011563577608576218001_);" d="
			M105.6,22.1c45.4,0,82.2,38.3,82.2,85.5s-36.8,85.5-82.2,85.5s-82.2-38.3-82.2-85.5S60.2,22.1,105.6,22.1z"/>
	</g>
	
		<radialGradient id="SVGID_00000078047097020094887070000018162541995692141444_" cx="124.3687" cy="154.7626" r="85.1021" gradientUnits="userSpaceOnUse">
		<stop  offset="0" style="stop-color:#915800;stop-opacity:0.8747"/>
		<stop  offset="0.2422" style="stop-color:#9D5F00;stop-opacity:0.6628"/>
		<stop  offset="0.681" style="stop-color:#BE7300;stop-opacity:0.279"/>
		<stop  offset="1" style="stop-color:#D98300;stop-opacity:0"/>
	</radialGradient>
	<path style="fill:url(#SVGID_00000078047097020094887070000018162541995692141444_);" d="M181.5,157.1l-32.2-4.8l0.1-0.3
		c0.1-0.9-0.4-1.7-1.2-1.8l-3.8-0.6c-0.8-0.1-1.5,0.5-1.7,1.4l0,0.2l-25.3-3.7c-3.2,1.7-6.4,2.7-6.4,2.7s-1.7,0.2-2,2.2
		c-0.3,2,1.3,2.7,1.3,2.7s1.1,0.7,2.6,1.7l28.5,4.2l-0.1,0.4c-0.1,0.9,0.4,1.7,1.2,1.8l3.8,0.6c0.8,0.1,1.5-0.5,1.7-1.4l0.1-0.5
		l27.1,4.1C177.3,163,179.5,160.1,181.5,157.1z"/>
	
		<radialGradient id="SVGID_00000178172187353542635470000006610823981400718744_" cx="157.63" cy="121.0736" r="31.6308" gradientUnits="userSpaceOnUse">
		<stop  offset="0" style="stop-color:#FF8400"/>
		<stop  offset="0.6739" style="stop-color:#FF9200;stop-opacity:0.3261"/>
		<stop  offset="1" style="stop-color:#FF9A00;stop-opacity:0"/>
	</radialGradient>
	
		<circle style="fill-rule:evenodd;clip-rule:evenodd;fill:url(#SVGID_00000178172187353542635470000006610823981400718744_);" cx="157.4" cy="121.1" r="32.3"/>
	
		<radialGradient id="SVGID_00000103978587097344501130000012815600441607231935_" cx="54.0785" cy="121.0736" r="31.6308" gradientUnits="userSpaceOnUse">
		<stop  offset="0" style="stop-color:#FF8400"/>
		<stop  offset="0.6739" style="stop-color:#FF9200;stop-opacity:0.3261"/>
		<stop  offset="1" style="stop-color:#FF9A00;stop-opacity:0"/>
	</radialGradient>
	
		<circle style="fill-rule:evenodd;clip-rule:evenodd;fill:url(#SVGID_00000103978587097344501130000012815600441607231935_);" cx="53.9" cy="121.1" r="32.3"/>
	<g>
		<path class="st15" d="M165,83.9c1.1,0.2,2.6-0.6,1.4-2.2c-1.7-2.4-8.6-9.2-19.2-11.2c-10.1-2-20.2,1.1-21.5,5.6
			c-0.4,1.6,1.1,1.4,1.9,1.3c2.8-0.1,8.8-1.1,17.2,0.3C155.4,79.4,162.6,83.5,165,83.9z"/>
		
			<radialGradient id="SVGID_00000032606952793698388940000011737025117069750146_" cx="-1924.9919" cy="562.4999" r="10.2792" gradientTransform="matrix(-0.2957 0.9553 2.0323 0.629 -1565.9382 1563.8295)" gradientUnits="userSpaceOnUse">
			<stop  offset="0" style="stop-color:#562511"/>
			<stop  offset="1.898837e-02" style="stop-color:#5B2910"/>
			<stop  offset="0.109" style="stop-color:#6F3A0E"/>
			<stop  offset="0.2118" style="stop-color:#7D450C"/>
			<stop  offset="0.3377" style="stop-color:#864C0B"/>
			<stop  offset="0.5528" style="stop-color:#884E0B"/>
			<stop  offset="1" style="stop-color:#522211"/>
		</radialGradient>
		<path style="fill-rule:evenodd;clip-rule:evenodd;fill:url(#SVGID_00000032606952793698388940000011737025117069750146_);" d="
			M165,82.3c1.1,0.2,2.6-0.6,1.4-2.2c-1.7-2.4-8.6-9.2-19.2-11.2c-10.1-2-20.2,1.1-21.5,5.6c-0.4,1.6,1.1,1.4,1.9,1.3
			c2.8-0.1,8.8-1.1,17.2,0.3C155.4,77.8,162.6,81.9,165,82.3z"/>
		<path class="st15" d="M135.2,101.3c-4.3-0.5-17.9,1-18.6,7.7c-0.2,1.7,0.8,3.3,4.5,3.7c4.6,0.5,7.1-0.8,14.5-0.1
			c7.3,0.8,6.5,2.3,12.5,2.9c5.4,0.6,6.8-3.2,3.7-7C149.4,105.4,143.9,102.3,135.2,101.3z"/>
		
			<radialGradient id="SVGID_00000078002938232150706640000017451834460577377435_" cx="232.356" cy="62.986" r="20.4003" gradientTransform="matrix(0.9944 0.1057 -6.804399e-02 0.6403 -92.8152 48.4834)" gradientUnits="userSpaceOnUse">
			<stop  offset="0.3601" style="stop-color:#A36407"/>
			<stop  offset="0.5236" style="stop-color:#995C09"/>
			<stop  offset="0.6244" style="stop-color:#955909"/>
			<stop  offset="0.7291" style="stop-color:#884E0B"/>
			<stop  offset="0.8357" style="stop-color:#743E0D"/>
			<stop  offset="0.9428" style="stop-color:#572611"/>
			<stop  offset="1" style="stop-color:#441713"/>
		</radialGradient>
		<path style="fill-rule:evenodd;clip-rule:evenodd;fill:url(#SVGID_00000078002938232150706640000017451834460577377435_);" d="
			M133.5,100.4c-4.3-0.5-15.9,0.3-16.6,7c-0.2,1.7,0.8,3.3,4.5,3.7c4.6,0.5,7.1-0.8,14.5-0.1c7.3,0.8,6.5,2.3,12.5,2.9
			C155.5,114.7,154.9,102.6,133.5,100.4z"/>
		<path class="st15" d="M46.1,83.9c-1.1,0.2-2.6-0.6-1.4-2.2c1.7-2.4,8.6-9.2,19.2-11.2c10.1-2,20.2,1.1,21.5,5.6
			c0.4,1.6-1.1,1.4-1.9,1.3c-2.8-0.1-8.8-1.1-17.2,0.3C55.8,79.4,48.5,83.5,46.1,83.9z"/>
		
			<radialGradient id="SVGID_00000065047776222159563850000006277778451067137170_" cx="-1259.1581" cy="181.3328" r="10.2792" gradientTransform="matrix(0.2957 0.9553 -2.0323 0.629 805.5788 1167.5173)" gradientUnits="userSpaceOnUse">
			<stop  offset="0" style="stop-color:#562511"/>
			<stop  offset="1.898837e-02" style="stop-color:#5B2910"/>
			<stop  offset="0.109" style="stop-color:#6F3A0E"/>
			<stop  offset="0.2118" style="stop-color:#7D450C"/>
			<stop  offset="0.3377" style="stop-color:#864C0B"/>
			<stop  offset="0.5528" style="stop-color:#884E0B"/>
			<stop  offset="1" style="stop-color:#522211"/>
		</radialGradient>
		<path style="fill-rule:evenodd;clip-rule:evenodd;fill:url(#SVGID_00000065047776222159563850000006277778451067137170_);" d="
			M46.1,82.3c-1.1,0.2-2.6-0.6-1.4-2.2c1.7-2.4,8.6-9.2,19.2-11.2c10.1-2,20.2,1.1,21.5,5.6c0.4,1.6-1.1,1.4-1.9,1.3
			c-2.8-0.1-8.8-1.1-17.2,0.3C55.8,77.8,48.5,81.9,46.1,82.3z"/>
		<path class="st15" d="M75.9,101.3c4.3-0.5,17.9,1,18.6,7.7c0.2,1.7-0.8,3.3-4.5,3.7c-4.6,0.5-7.1-0.8-14.5-0.1
			c-7.3,0.8-6.5,2.3-12.5,2.9c-5.4,0.6-6.8-3.2-3.7-7C61.8,105.4,67.3,102.3,75.9,101.3z"/>
		
			<radialGradient id="SVGID_00000047023621296070594850000005073847871293220739_" cx="-530.5654" cy="144.0659" r="20.4003" gradientTransform="matrix(-0.9944 0.1057 6.804399e-02 0.6403 -460.205 77.197)" gradientUnits="userSpaceOnUse">
			<stop  offset="0.3601" style="stop-color:#A36407"/>
			<stop  offset="0.5236" style="stop-color:#995C09"/>
			<stop  offset="0.6244" style="stop-color:#955909"/>
			<stop  offset="0.7291" style="stop-color:#884E0B"/>
			<stop  offset="0.8357" style="stop-color:#743E0D"/>
			<stop  offset="0.9428" style="stop-color:#572611"/>
			<stop  offset="1" style="stop-color:#441713"/>
		</radialGradient>
		<path style="fill-rule:evenodd;clip-rule:evenodd;fill:url(#SVGID_00000047023621296070594850000005073847871293220739_);" d="
			M77.7,100.4c4.3-0.5,15.9,0.3,16.6,7c0.2,1.7-0.8,3.3-4.5,3.7c-4.6,0.5-7.1-0.8-14.5-0.1c-7.3,0.8-6.5,2.3-12.5,2.9
			C55.7,114.7,56.3,102.6,77.7,100.4z"/>
		
			<radialGradient id="SVGID_00000026165073745805376740000014726599587954349983_" cx="232.6701" cy="74.3915" r="63.0385" gradientTransform="matrix(0.9944 0.1057 -5.400503e-02 0.5082 -94.2888 62.3496)" gradientUnits="userSpaceOnUse">
			<stop  offset="0.3706" style="stop-color:#562511"/>
			<stop  offset="0.4278" style="stop-color:#5C2A10;stop-opacity:0.7387"/>
			<stop  offset="0.5031" style="stop-color:#6C370E;stop-opacity:0.3943"/>
			<stop  offset="0.5883" style="stop-color:#884E0B;stop-opacity:4.948258e-03"/>
			<stop  offset="0.5893" style="stop-color:#884E0B;stop-opacity:0"/>
		</radialGradient>
		<path style="fill-rule:evenodd;clip-rule:evenodd;fill:url(#SVGID_00000026165073745805376740000014726599587954349983_);" d="
			M133.5,100.4c-4.3-0.5-15.9,0.3-16.6,7c-0.2,1.7,0.8,3.3,4.5,3.7c4.6,0.5,7.1-0.8,14.5-0.1c7.3,0.8,6.5,2.3,12.5,2.9
			C155.5,114.7,154.9,102.6,133.5,100.4z"/>
	</g>
	
		<radialGradient id="SVGID_00000145756201406083932530000005383916322131469747_" cx="122.3437" cy="152.7711" r="29.0115" gradientUnits="userSpaceOnUse">
		<stop  offset="0" style="stop-color:#FF8400"/>
		<stop  offset="0.5474" style="stop-color:#FF9200;stop-opacity:0.3261"/>
		<stop  offset="0.8123" style="stop-color:#FF9A00;stop-opacity:0"/>
	</radialGradient>
	<path style="fill-rule:evenodd;clip-rule:evenodd;fill:url(#SVGID_00000145756201406083932530000005383916322131469747_);" d="
		M123.1,120.2c-6.5,0-12.5,1.9-17.5,5.2c6.9,1.6,19.8,5.4,19.8,11.9c0,8.6-14.7,11-14.7,15.6s14.7,5.3,14.7,11.7
		c0,8.4-19.5,12-23.3,12.6c5.7,4.8,13,7.8,21,7.8c17.9,0,32.3-14.5,32.3-32.3C155.4,134.7,140.9,120.2,123.1,120.2z"/>
	<g>
		<path class="st22" d="M108.9,172c0,0,13.2-3.9,13.2-7.1c0-3.2-11.5-8.2-11.5-8.2s-1.6-0.4-1.6-2.5c0-2.1,1.6-2.5,1.6-2.5
			s11.5-5.5,11.5-10.7s-13.2-9-13.2-9s-0.8-0.4-0.8-0.8c0-0.4,0.3-0.8,0.8-0.8c0.3,0,21.4,3.4,21.4,10.7c0,7.3-13.2,9.3-13.2,13.2
			s13.2,4.4,13.2,9.9c0,7.9-21.4,10.7-21.4,10.7s-1.6,0.3-1.6-1.1C107.3,172.2,108.9,172,108.9,172z"/>
		
			<radialGradient id="SVGID_00000062178827107251255290000003559833712013602749_" cx="111.6901" cy="151.5784" r="27.229" gradientUnits="userSpaceOnUse">
			<stop  offset="0" style="stop-color:#522211"/>
			<stop  offset="0.5561" style="stop-color:#703B0E"/>
			<stop  offset="1" style="stop-color:#522211"/>
		</radialGradient>
		<path style="fill-rule:evenodd;clip-rule:evenodd;fill:url(#SVGID_00000062178827107251255290000003559833712013602749_);" d="
			M108.9,170.4c0,0,13.2-3.9,13.2-7.1c0-3.2-11.5-8.2-11.5-8.2s-1.6-0.4-1.6-2.5c0-2.1,1.6-2.5,1.6-2.5s11.5-5.5,11.5-10.7
			s-13.2-9-13.2-9s-0.8-0.4-0.8-0.8c0-0.4,0.3-0.8,0.8-0.8c0.3,0,21.4,3.4,21.4,10.7c0,7.3-13.2,9.3-13.2,13.2s13.2,4.4,13.2,9.9
			c0,7.9-21.4,10.7-21.4,10.7s-1.6,0.3-1.6-1.1C107.3,170.6,108.9,170.4,108.9,170.4z"/>
		
			<radialGradient id="SVGID_00000160150332025508582650000008298797079605171622_" cx="111.6901" cy="151.5784" r="27.229" gradientUnits="userSpaceOnUse">
			<stop  offset="0" style="stop-color:#522211"/>
			<stop  offset="0.5561" style="stop-color:#703B0E"/>
			<stop  offset="1" style="stop-color:#522211"/>
		</radialGradient>
		<path style="fill-rule:evenodd;clip-rule:evenodd;fill:url(#SVGID_00000160150332025508582650000008298797079605171622_);" d="
			M108.9,170.4c0,0,13.2-3.9,13.2-7.1c0-3.2-11.5-8.2-11.5-8.2s-1.6-0.4-1.6-2.5c0-2.1,1.6-2.5,1.6-2.5s11.5-5.5,11.5-10.7
			s-13.2-9-13.2-9s-0.8-0.4-0.8-0.8c0-0.4,0.3-0.8,0.8-0.8c0.3,0,21.4,3.4,21.4,10.7c0,7.3-13.2,9.3-13.2,13.2s13.2,4.4,13.2,9.9
			c0,7.9-21.4,10.7-21.4,10.7s-1.6,0.3-1.6-1.1C107.3,170.6,108.9,170.4,108.9,170.4z"/>
	</g>
	<g>
		<polygon class="st25" points="79.9,8.9 92.1,13.6 87.9,24.8 76.7,20.5 		"/>
		
			<linearGradient id="SVGID_00000044896504696468439750000007166326829809588146_" gradientUnits="userSpaceOnUse" x1="383.1627" y1="1032.4196" x2="400.938" y2="1032.4196" gradientTransform="matrix(0.7337 0.6794 -0.6794 0.7337 555.5052 -834.887)">
			<stop  offset="0" style="stop-color:#2761DA"/>
			<stop  offset="1" style="stop-color:#396DD8"/>
		</linearGradient>
		<polygon style="fill:url(#SVGID_00000044896504696468439750000007166326829809588146_);" points="134.9,183.2 148,183.3 
			148,195.3 136,195.2 		"/>
		
			<linearGradient id="SVGID_00000141422202157048737880000007132127003239526075_" gradientUnits="userSpaceOnUse" x1="135.3082" y1="456.2569" x2="153.0836" y2="456.2569" gradientTransform="matrix(0.9397 0.3421 -0.3421 0.9397 147.8367 -444.0375)">
			<stop  offset="0" style="stop-color:#E3496B"/>
			<stop  offset="1" style="stop-color:#E56783"/>
		</linearGradient>
		<polygon style="fill:url(#SVGID_00000141422202157048737880000007132127003239526075_);" points="118.8,31.3 130.9,26.4 
			135.5,37.4 124.4,42 		"/>
		
			<linearGradient id="SVGID_00000070091520644618026290000005243341477303595694_" gradientUnits="userSpaceOnUse" x1="269.3423" y1="1082.0492" x2="281.9494" y2="1082.0492" gradientTransform="matrix(0.7337 0.6794 -0.6794 0.7337 555.5052 -834.887)">
			<stop  offset="0" style="stop-color:#2761DA"/>
			<stop  offset="1" style="stop-color:#396DD8"/>
		</linearGradient>
		<polygon style="fill:url(#SVGID_00000070091520644618026290000005243341477303595694_);" points="14.4,145.9 24.3,138.7 
			30.2,147.4 21.5,154.5 		"/>
		<polygon class="st29" points="176.5,171 188.7,171 188.7,181.8 176.4,182.2 		"/>
		<polygon class="st30" points="58.3,192.5 68.9,184.8 76,194.4 66.3,201.5 		"/>
		<polygon class="st30" points="184.5,73 185.3,61.4 197.1,61.4 197.1,73.4 		"/>
		
			<linearGradient id="SVGID_00000007404669750486677340000015291475433385033400_" gradientUnits="userSpaceOnUse" x1="168.4576" y1="23.2519" x2="181.6804" y2="23.2519">
			<stop  offset="0" style="stop-color:#2761DA"/>
			<stop  offset="1" style="stop-color:#396DD8"/>
		</linearGradient>
		<polygon style="fill:url(#SVGID_00000007404669750486677340000015291475433385033400_);" points="168.5,26 172.6,15.6 181.7,19.7 
			178.9,30.9 		"/>
	</g>
	<g>
		
			<linearGradient id="SVGID_00000149344545270660146180000008464162997662527904_" gradientUnits="userSpaceOnUse" x1="126.9071" y1="156.359" x2="126.9071" y2="146.5349">
			<stop  offset="0" style="stop-color:#2B2275"/>
			<stop  offset="1" style="stop-color:#6E5AE2"/>
		</linearGradient>
		<path style="fill:url(#SVGID_00000149344545270660146180000008464162997662527904_);" d="M110.5,150.1c0,0-1.6,0.4-1.6,2.5
			s1.6,2.5,1.6,2.5s1.2,0.5,2.8,1.3h31.6v-9.8h-28.4C113.6,148.6,110.5,150.1,110.5,150.1z"/>
		
			<linearGradient id="SVGID_00000005238850737047721040000003380796950890969005_" gradientUnits="userSpaceOnUse" x1="175.111" y1="156.2925" x2="175.111" y2="122.6357">
			<stop  offset="0" style="stop-color:#02378A"/>
			<stop  offset="5.804006e-02" style="stop-color:#174EA1"/>
			<stop  offset="0.1786" style="stop-color:#3D78CC"/>
			<stop  offset="0.2728" style="stop-color:#5592E7"/>
			<stop  offset="0.3284" style="stop-color:#5E9CF1"/>
		</linearGradient>
		<path style="fill:url(#SVGID_00000005238850737047721040000003380796950890969005_);" d="M147.6,156.3h34.6c0.9,0,1.7,0,2.6-0.1
			c6.6-0.7,11.2-3.2,14.3-7.1c2.4-3.1,3.6-6.9,3.6-10.8c0-0.1,0-0.1,0-0.2c0-7-4.5-13-11.1-15.3c-0.2-0.1-0.4-0.1-0.6-0.2l7.9,12.8
			c0.6,3.2,0.3,5.6-0.5,7.4c-1.1,2.4-3.6,3.9-6.3,3.9h-44.5V156.3z"/>
		
			<linearGradient id="SVGID_00000150803968298765375560000010340729207200301443_" gradientUnits="userSpaceOnUse" x1="145.5034" y1="158.7426" x2="145.5034" y2="144.3728">
			<stop  offset="0" style="stop-color:#2D1C60"/>
			<stop  offset="9.858630e-02" style="stop-color:#342371"/>
			<stop  offset="0.2917" style="stop-color:#47359B"/>
			<stop  offset="0.4536" style="stop-color:#5946C4"/>
			<stop  offset="0.8625" style="stop-color:#7667E8"/>
			<stop  offset="0.8993" style="stop-color:#7263E3"/>
			<stop  offset="0.9402" style="stop-color:#6857D6"/>
			<stop  offset="0.9762" style="stop-color:#5946C4"/>
			<stop  offset="1" style="stop-color:#3E2682"/>
		</linearGradient>
		<path style="fill:url(#SVGID_00000150803968298765375560000010340729207200301443_);" d="M142.1,146.3v10.4c0,1.1,0.9,2,2,2h2.8
			c1.1,0,2-0.9,2-2v-10.4c0-1.1-0.9-2-2-2h-2.8C143,144.4,142.1,145.3,142.1,146.3z"/>
		<path class="st35" d="M187.4,125.5c-4.9,0-8.9,4-8.9,8.9s4,8.9,8.9,8.9s8.9-4,8.9-8.9S192.3,125.5,187.4,125.5z M187.4,140.4
			c-3.3,0-6.1-2.7-6.1-6.1c0-3.3,2.7-6.1,6.1-6.1c3.3,0,6.1,2.7,6.1,6.1C193.4,137.7,190.7,140.4,187.4,140.4z"/>
		
			<radialGradient id="SVGID_00000108308767850624003080000011528244101331816621_" cx="187.364" cy="134.3466" r="8.8894" gradientUnits="userSpaceOnUse">
			<stop  offset="5.586592e-03" style="stop-color:#0949AE"/>
			<stop  offset="0.4512" style="stop-color:#0B4BAF;stop-opacity:0.5353"/>
			<stop  offset="0.6116" style="stop-color:#1251B5;stop-opacity:0.368"/>
			<stop  offset="0.726" style="stop-color:#1D5DBE;stop-opacity:0.2487"/>
			<stop  offset="0.8185" style="stop-color:#2E6DCB;stop-opacity:0.1522"/>
			<stop  offset="0.8968" style="stop-color:#4483DD;stop-opacity:7.053924e-02"/>
			<stop  offset="0.9645" style="stop-color:#5E9CF1;stop-opacity:0"/>
		</radialGradient>
		<path style="fill:url(#SVGID_00000108308767850624003080000011528244101331816621_);" d="M187.4,125.5c-4.9,0-8.9,4-8.9,8.9
			s4,8.9,8.9,8.9s8.9-4,8.9-8.9S192.3,125.5,187.4,125.5z M187.4,140.4c-3.3,0-6.1-2.7-6.1-6.1c0-3.3,2.7-6.1,6.1-6.1
			c3.3,0,6.1,2.7,6.1,6.1C193.4,137.7,190.7,140.4,187.4,140.4z"/>
		<path class="st35" d="M187.4,122.1c-6.8,0-12.3,5.5-12.3,12.3c0,6.8,5.5,12.3,12.3,12.3c6.8,0,12.3-5.5,12.3-12.3
			C199.6,127.6,194.1,122.1,187.4,122.1z M187.4,143.2c-4.9,0-8.9-4-8.9-8.9c0-4.9,4-8.9,8.9-8.9s8.9,4,8.9,8.9
			C196.3,139.3,192.3,143.2,187.4,143.2z"/>
		
			<radialGradient id="SVGID_00000003088135280367879380000001975922378477582221_" cx="187.364" cy="134.3466" r="12.2529" gradientUnits="userSpaceOnUse">
			<stop  offset="5.586592e-03" style="stop-color:#0949AE"/>
			<stop  offset="0.4248" style="stop-color:#0B4BB0;stop-opacity:0.5784"/>
			<stop  offset="0.6001" style="stop-color:#1252B5;stop-opacity:0.4022"/>
			<stop  offset="0.7298" style="stop-color:#1F5EBF;stop-opacity:0.2718"/>
			<stop  offset="0.837" style="stop-color:#306FCD;stop-opacity:0.1639"/>
			<stop  offset="0.9294" style="stop-color:#4785DF;stop-opacity:7.101393e-02"/>
			<stop  offset="1" style="stop-color:#5E9CF1;stop-opacity:0"/>
		</radialGradient>
		<path style="fill:url(#SVGID_00000003088135280367879380000001975922378477582221_);" d="M187.4,122.1c-6.8,0-12.3,5.5-12.3,12.3
			c0,6.8,5.5,12.3,12.3,12.3c6.8,0,12.3-5.5,12.3-12.3C199.6,127.6,194.1,122.1,187.4,122.1z M187.4,143.2c-4.9,0-8.9-4-8.9-8.9
			c0-4.9,4-8.9,8.9-8.9s8.9,4,8.9,8.9C196.3,139.3,192.3,143.2,187.4,143.2z"/>
		
			<radialGradient id="SVGID_00000119825133703543592040000012760539051231115707_" cx="203.4133" cy="576.5685" r="6.8184" gradientTransform="matrix(0.9159 0.4014 -0.4014 0.9159 234.6635 -475.7644)" gradientUnits="userSpaceOnUse">
			<stop  offset="0.1655" style="stop-color:#02378A"/>
			<stop  offset="0.2481" style="stop-color:#174EA1"/>
			<stop  offset="0.4198" style="stop-color:#3D78CC"/>
			<stop  offset="0.5538" style="stop-color:#5592E7"/>
			<stop  offset="0.6328" style="stop-color:#5E9CF1"/>
		</radialGradient>
		<path style="fill:url(#SVGID_00000119825133703543592040000012760539051231115707_);" d="M192.9,136.8c1.3-3.1-0.1-6.6-3.1-8
			c-0.2-0.1-0.5-0.2-0.7-0.2c-0.7,0.7-0.5,1.8,0.3,2.2c2.2,1.2,4.1,4.7,2.5,7.6C192.3,137.9,192.6,137.4,192.9,136.8z"/>
		<path class="st39" d="M193,136.7c0.5-1.2,0.6-2.5,0.3-3.7c-0.3,0.4-0.5,0.8-0.6,1.3C192.4,135.1,192.6,135.9,193,136.7z"/>
		<path class="st39" d="M187.4,125.5c0.8,1.8,2.5,3.1,4.6,3.1c0.6,0,1.2-0.1,1.8-0.3C192.2,126.5,189.9,125.5,187.4,125.5z"/>
		<path class="st39" d="M178.6,135.2c1.4-0.9,2.3-2.4,2.3-4.2c0-0.7-0.2-1.4-0.5-2.1c-1.2,1.5-1.9,3.4-1.9,5.5
			C178.5,134.6,178.5,134.9,178.6,135.2z"/>
		<path class="st39" d="M186.5,143.2c-0.8-1.8-2.5-3-4.6-3c-0.4,0-0.8,0.1-1.2,0.2C182.2,141.9,184.3,142.9,186.5,143.2z"/>
		<path class="st39" d="M177.4,136.2c0-1.7-0.8-3.1-2.1-4c-0.1,0.7-0.2,1.4-0.2,2.1c0,1.8,0.4,3.5,1.1,5
			C176.9,138.5,177.4,137.4,177.4,136.2z"/>
		<path class="st39" d="M182,125.3c2.1,0,3.9-1.3,4.7-3.2c-2.6,0.1-5,1.1-7,2.7C180.4,125.1,181.2,125.3,182,125.3z"/>
		<path class="st39" d="M193.7,143.1c-2.2,0-4.1,1.4-4.7,3.4c2.5-0.3,4.8-1.4,6.6-3C195,143.2,194.3,143.1,193.7,143.1z"/>
		<path class="st39" d="M164.9,150.3c-2.7,0-4.9,2.2-4.9,4.9c0,0.4,0,0.8,0.1,1.1h9.5c0.1-0.4,0.1-0.7,0.1-1.1
			C169.8,152.5,167.6,150.3,164.9,150.3z"/>
		<path class="st39" d="M179.8,150.6c2.4,0,4.4-1.7,4.8-4H175C175.4,148.9,177.4,150.6,179.8,150.6z"/>
		<path class="st39" d="M190,150.6c-2.7,0-4.9,2.2-4.9,4.9c0,0.2,0,0.4,0,0.6c3.6-0.4,6.7-1.4,9.2-2.9
			C193.5,151.7,191.9,150.6,190,150.6z"/>
		<path class="st39" d="M202.7,138.2c-1.6,0.8-2.7,2.5-2.7,4.5c0,1.2,0.4,2.3,1.1,3.1C202.1,143.5,202.7,140.9,202.7,138.2
			C202.7,138.3,202.7,138.2,202.7,138.2z"/>
		<path class="st39" d="M156,150.3c2.3,0,4.2-1.6,4.7-3.7h-9.5C151.9,148.8,153.8,150.3,156,150.3z"/>
		<path class="st39" d="M195.5,124.8c0.2,2.5,2.1,4.5,4.6,4.7C198.9,127.6,197.3,126,195.5,124.8z"/>
		
			<linearGradient id="SVGID_00000057120996954693119360000016309795746137999495_" gradientUnits="userSpaceOnUse" x1="113.2685" y1="151.4469" x2="136.599" y2="151.4469">
			<stop  offset="0" style="stop-color:#171340"/>
			<stop  offset="6.030990e-02" style="stop-color:#1F1A4F;stop-opacity:0.9256"/>
			<stop  offset="0.3212" style="stop-color:#41358E;stop-opacity:0.6035"/>
			<stop  offset="0.5421" style="stop-color:#5949BC;stop-opacity:0.3308"/>
			<stop  offset="0.7119" style="stop-color:#6855D8;stop-opacity:0.1212"/>
			<stop  offset="0.8101" style="stop-color:#6E5AE2;stop-opacity:0"/>
		</linearGradient>
		<path style="fill:url(#SVGID_00000057120996954693119360000016309795746137999495_);" d="M132.2,146.5h-15.7c-2.9,2.1-6,3.6-6,3.6
			s-1.6,0.4-1.6,2.5s1.6,2.5,1.6,2.5s1.2,0.5,2.8,1.3h18.9V146.5z"/>
		
			<linearGradient id="SVGID_00000029732513836567018230000013075530977395856287_" gradientUnits="userSpaceOnUse" x1="134.0849" y1="151.4469" x2="143.9911" y2="151.4469">
			<stop  offset="0.2569" style="stop-color:#6E5AE2;stop-opacity:0"/>
			<stop  offset="0.347" style="stop-color:#6855D8;stop-opacity:0.1212"/>
			<stop  offset="0.5027" style="stop-color:#5949BC;stop-opacity:0.3308"/>
			<stop  offset="0.7053" style="stop-color:#41358E;stop-opacity:0.6035"/>
			<stop  offset="0.9447" style="stop-color:#1F1A4F;stop-opacity:0.9256"/>
			<stop  offset="1" style="stop-color:#171340"/>
		</linearGradient>
		
			<rect x="132.2" y="146.5" style="fill:url(#SVGID_00000029732513836567018230000013075530977395856287_);" width="9.9" height="9.8"/>
	</g>
</g>
</svg>
