<?xml version="1.0" encoding="utf-8"?>
<!-- Generator: Adobe Illustrator 25.4.1, SVG Export Plug-In . SVG Version: 6.00 Build 0)  -->
<svg version="1.1" id="Laag_1" xmlns="http://www.w3.org/2000/svg" xmlns:xlink="http://www.w3.org/1999/xlink" x="0px" y="0px"
	 viewBox="0 0 210 210" style="enable-background:new 0 0 210 210;" xml:space="preserve">
<style type="text/css">
	.st0{fill:url(#SVGID_1_);}
	.st1{fill:#EDA600;}
	.st2{fill:url(#SVGID_00000055671246861219013170000009333952633808475577_);}
	.st3{clip-path:url(#SVGID_00000092415882516304458070000010469584942831394465_);}
	.st4{fill:url(#SVGID_00000140010588698205912190000016099559166414176402_);}
</style>
<g>
	
		<radialGradient id="SVGID_1_" cx="54765.3789" cy="-24807.498" r="456.7629" gradientTransform="matrix(6.230000e-02 0 0 -6.230000e-02 -3347.772 -1498.6362)" gradientUnits="userSpaceOnUse">
		<stop  offset="0.2793" style="stop-color:#FFCA28"/>
		<stop  offset="0.7972" style="stop-color:#FFB300"/>
	</radialGradient>
	<path class="st0" d="M126.1,93.7c-14.4,0-44.1-24.1-45.9-25.5c-3.5-3.5-10.9-12.5-6.5-22.6c0.9-2.2,3-3.3,6-3.3
		c3.7,0,8.5,1.7,12.8,4.5l38.6,29.8c2.2,1.6,3.2,3.9,3,6.9c-0.2,2.7-1.4,5.9-3.4,8.5C129.7,93.1,128.2,93.7,126.1,93.7L126.1,93.7z"
		/>
	<path class="st1" d="M79.7,44.6c3.3,0,7.6,1.5,11.5,4.1l38.5,29.8c1.5,1.2,2.2,2.8,2.1,4.9c-0.1,2.3-1.2,4.9-2.9,7.2
		c-0.3,0.3-1,0.8-2.9,0.8c-11.5,0-35.8-17.9-44.4-24.9c-3.2-3.2-9.7-11.3-5.9-20C76,45.9,76.6,44.6,79.7,44.6 M79.7,40
		c-3.7,0-6.7,1.4-8.1,4.6c-4.1,9.4,0.6,18.7,7,25.2c0,0,31.7,26.1,47.4,26.1c2.7,0,4.9-0.8,6.4-2.5c4.5-6,6-14.1,0-18.6L93.8,44.9
		C89.3,41.9,84,40,79.7,40z"/>
	
		<radialGradient id="SVGID_00000127005335312724074120000007542231286244832188_" cx="55357.4531" cy="-24790.7891" r="879.5723" fx="55154.875" fy="-24575.4863" gradientTransform="matrix(6.230000e-02 0 0 -6.230000e-02 -3347.772 -1498.6362)" gradientUnits="userSpaceOnUse">
		<stop  offset="0" style="stop-color:#FFCA28"/>
		<stop  offset="1" style="stop-color:#FFB300"/>
	</radialGradient>
	<path style="fill:url(#SVGID_00000127005335312724074120000007542231286244832188_);" d="M154.1,143.1
		c-14.1-0.2-18.6-30.7-19.2-42.4c0-0.7-0.4-1.3-0.9-1.7c-6.5-4.9-13.8-21.5-18.4-35.4c-0.1-0.4-0.2-0.6-0.2-0.6
		c-0.3-0.5-0.8-0.9-1.3-1.1c-10.4-3.2-26.2-16.1-32.6-23.6c-3.5-4.1-5.7-12.8-3.4-17.9c1.1-2.5,3.2-3.6,6.2-3.6
		c3.8,0,9.1,2,15.3,5.7c1.7,1.3,31.3,22.8,39,31.4c7.9,8.7,17.6,28.2,17.7,28.4c12.5,26.4,10.7,50.1,10,55.5
		C161.2,140.3,155.4,142.9,154.1,143.1z"/>
	<path class="st1" d="M84.3,19.1c2.4,0,6.7,0.9,14.1,5.3c2.4,1.7,31.1,22.7,38.6,31c7.5,8.3,16.9,26.9,17.3,27.8
		c11.4,24.1,10.6,46.1,10,53c-4.3,2.1-8.9,4.1-10.4,4.6c-11.1-0.6-16-27.3-16.6-40.3c-0.1-1.3-0.7-2.6-1.8-3.4
		c-3.8-2.9-10.7-13.6-17.6-34.3c-0.1-0.4-0.2-0.6-0.4-1c-0.6-1-1.5-1.8-2.6-2.2c-4.6-1.4-10.7-5-17.4-10.1
		c-5.5-4.2-11.1-9.2-14.1-12.8c-3.3-3.9-4.9-11.6-3.1-15.5C80.7,20.2,81.6,19.1,84.3,19.1 M84.3,14.5c-12.8,0-10.8,17.9-4.5,25.3
		c6,7.1,22.2,20.8,33.7,24.3c0.1,0.1,9.4,29.3,19.2,36.7c0,0,2.1,44.6,21.5,44.6c1.7,0,14.3-6.1,14.3-6.1s4.5-27.1-10.1-58
		c0,0-9.8-19.8-18-28.9c-8.2-9.1-39.5-31.8-39.5-31.8C93.7,16.3,88.3,14.5,84.3,14.5z"/>
	<g>
		<defs>
			<path id="SVGID_00000154422917190146703090000011892793874779197318_" d="M155.3,117.8c-6.3-11.8-13-31.9-21.4-34.7l-33.1-10.4
				c-4.6-1.5-16.8,2.4-23,5.3c-0.5,0.2-28,19.3-28,19.3c-6.5,4.1-9.3,12.5-2.5,17.3c8.4,5.9,16.1,6.4,23.9,3.2
				c7.8-3.2,13.4-10.2,20.2-12.9s18.3-1.5,24.2,6.4c5.9,7.9,9,32.1-12.1,41c-22.4,9.4-34.3-21.5-34.3-21.5
				c-3.7-6.7-11.2-12.1-19.6-9.4c-8.4,2.8-9,9-8.9,18.1c0,0,1.9,19.5,9,29.5c7.1,10,21.1,19.8,21.1,19.8c1.1,1.1,10.6,6.6,14.8,6.6
				l29.7,0c17.7,0,33.8-10,40.7-25.4c5.3-11.9,10.8-24.7,12.1-30.5c0.9-3.9-4.6-3.5-4.6-3.5S161.6,129.6,155.3,117.8z"/>
		</defs>
		<clipPath id="SVGID_00000028310124603425184620000009041966070842155704_">
			<use xlink:href="#SVGID_00000154422917190146703090000011892793874779197318_"  style="overflow:visible;"/>
		</clipPath>
		<g style="clip-path:url(#SVGID_00000028310124603425184620000009041966070842155704_);">
			
				<radialGradient id="SVGID_00000112630674657321301340000011572890908740058283_" cx="51647.0234" cy="-25656.8887" r="1428.8434" gradientTransform="matrix(6.610000e-02 0 0 -6.230000e-02 -3325.4482 -1498.6362)" gradientUnits="userSpaceOnUse">
				<stop  offset="0.242" style="stop-color:#FFCA28"/>
				<stop  offset="0.7972" style="stop-color:#FFB300"/>
			</radialGradient>
			<path style="fill:url(#SVGID_00000112630674657321301340000011572890908740058283_);" d="M85.7,193.2c-3.4,0-12.1-4.9-13.3-6
				c-0.1-0.1-0.2-0.2-0.2-0.2c-0.1-0.1-13.7-9.8-20.5-19.3c-6.7-9.3-8.9-27.7-8.9-27.9c-0.9-6-0.2-13.6,7.7-16.2
				c1.3-0.4,2.5-0.6,3.8-0.6c5.9,0,10.6,4.5,13,8.8c0.9,2.3,10.2,24.6,28,24.6c3,0,6.1-0.7,9.2-2c10.9-4.6,15.1-12.6,16.7-18.6
				c2.7-9.9,0.1-20.7-3.7-25.8c-4-5.4-11-8.6-18.7-8.6c-3,0-5.8,0.5-8.2,1.4c-3.7,1.4-7,4-10.2,6.4c-3.1,2.4-6.4,4.9-10,6.4
				c-2.9,1.2-5.6,1.8-8.3,1.8c-4.4,0-8.8-1.6-13.4-4.8c-2-1.4-3-3.2-3-5.3c0.1-2.9,2.2-6.1,5.4-8.1C61.5,91.9,77.3,81,78.8,80
				c5-2.3,13-4.3,17.7-4.3c1.5,0,2.3,0.2,2.8,0.3l32.6,10.6c6.9,2.3,17.3,18.4,22.3,26.1l1.4,2.1c0.1,0.1,0.2,0.3,0.3,0.4
				c0.1,0.1,12.6,12.8,10.1,23.7c-1.1,4.7-5.2,15.1-11.9,30.1c-6.6,14.6-21.7,24.1-38.6,24.1L85.7,193.2z"/>
			<path class="st1" d="M96.5,78c1.3,0,1.9,0.2,2.1,0.2l32.5,10.6c6.2,2.1,16.7,18.3,21.1,25.2c0.5,0.8,1,1.5,1.4,2.1
				c0.2,0.3,0.4,0.5,0.6,0.7c3.3,3.3,11.3,13.5,9.5,21.6c-0.7,3.1-3.3,10.8-11.8,29.7c-6.2,13.8-20.6,22.7-36.6,22.8l-29.6,0
				c-2.4,0-10.1-4.1-11.8-5.4c-0.1-0.1-0.3-0.2-0.4-0.3c-0.1-0.1-13.4-9.6-20-18.8c-6.4-8.9-8.5-26.6-8.5-26.8c0,0,0-0.1,0-0.1
				c-1.1-7.4,1-12,6.1-13.7c1-0.3,2.1-0.5,3.1-0.5c4.9,0,8.9,3.8,11,7.5c1.3,3.2,11.2,25.8,30.1,25.8c3.3,0,6.7-0.7,10-2.1
				c11.7-4.9,16.3-13.7,18-20.1c2.9-10.7,0.2-22.1-4.1-27.7c-4.4-6-12.1-9.5-20.5-9.5c-3.2,0-6.3,0.5-9,1.6c-4,1.5-7.4,4.2-10.8,6.8
				c-3.2,2.5-6.2,4.8-9.5,6.2c-2.6,1.1-5,1.6-7.5,1.6c-4,0-7.9-1.4-12.1-4.3c-1.4-1-2-2.1-2-3.4c0-2.2,1.8-4.7,4.3-6.3
				c0.1,0,0.1-0.1,0.2-0.1c9.7-6.8,25.4-17.7,27.5-19C84.6,79.9,92.2,78,96.5,78 M96.5,73.5c-5.5,0-13.8,2.2-18.7,4.5
				c-0.5,0.2-28,19.3-28,19.3c-6.5,4.1-9.3,12.5-2.5,17.3c5.1,3.6,9.9,5.2,14.7,5.2c3.1,0,6.1-0.7,9.2-1.9
				c7.8-3.2,13.4-10.2,20.2-12.9c2.1-0.8,4.7-1.3,7.4-1.3c6,0,12.8,2.2,16.9,7.7c5.9,7.9,9,32.1-12.1,41c-3,1.2-5.7,1.8-8.3,1.8
				c-17,0-26-23.3-26-23.3c-3-5.5-8.6-10.1-15.1-10.1c-1.5,0-3,0.2-4.5,0.7c-8.4,2.8-10.4,10.6-9.2,18.6c0,0,2.2,19,9.3,28.9
				c7.1,10,21.1,19.8,21.1,19.8c1.1,1.1,10.6,6.6,14.8,6.6l29.7,0c17.7,0,33.8-10,40.7-25.4c5.3-11.9,10.8-24.7,12.1-30.5
				c2.8-12.3-10.7-25.8-10.7-25.8c-5.2-8-16.5-26.4-24.9-29.1L100,73.9C99.1,73.6,97.9,73.5,96.5,73.5z"/>
		</g>
	</g>
</g>
</svg>
