<?xml version="1.0" encoding="utf-8"?>
<!-- Generator: Adobe Illustrator 25.4.1, SVG Export Plug-In . SVG Version: 6.00 Build 0)  -->
<svg version="1.1" id="Laag_1" xmlns="http://www.w3.org/2000/svg" xmlns:xlink="http://www.w3.org/1999/xlink" x="0px" y="0px"
	 viewBox="0 0 210 210" style="enable-background:new 0 0 210 210;" xml:space="preserve">
<style type="text/css">
	.st0{fill-rule:evenodd;clip-rule:evenodd;fill:#FEF46C;}
	.st1{fill-rule:evenodd;clip-rule:evenodd;fill:url(#SVGID_1_);}
	.st2{fill-rule:evenodd;clip-rule:evenodd;fill:url(#SVGID_00000182489144799903979870000011138196906200375997_);}
	.st3{fill-rule:evenodd;clip-rule:evenodd;fill:url(#SVGID_00000060008734083104809730000005135926586939096224_);}
	.st4{fill-rule:evenodd;clip-rule:evenodd;fill:url(#SVGID_00000174604366603549339290000010839883167684505517_);}
	.st5{fill-rule:evenodd;clip-rule:evenodd;fill:url(#SVGID_00000096778646583562561170000001718612590271539631_);}
	.st6{fill-rule:evenodd;clip-rule:evenodd;fill:url(#SVGID_00000115514425623524413470000007122726804760323210_);}
	.st7{fill-rule:evenodd;clip-rule:evenodd;fill:#FCC430;}
	.st8{fill-rule:evenodd;clip-rule:evenodd;fill:#592500;}
	.st9{fill-rule:evenodd;clip-rule:evenodd;fill:#673101;}
	.st10{fill-rule:evenodd;clip-rule:evenodd;fill:#753D03;}
	.st11{fill-rule:evenodd;clip-rule:evenodd;fill:#824A04;}
	.st12{fill-rule:evenodd;clip-rule:evenodd;fill:#905606;}
	.st13{fill-rule:evenodd;clip-rule:evenodd;fill:#9E6207;}
	.st14{fill-rule:evenodd;clip-rule:evenodd;fill:#A66707;}
	.st15{fill:#733A07;}
	.st16{fill-rule:evenodd;clip-rule:evenodd;fill:url(#SVGID_00000057863977234722990380000012666968802772660651_);}
	.st17{fill:url(#SVGID_00000062873884432951145240000014380539595763396487_);}
	.st18{fill:url(#SVGID_00000032612264188533871260000017469663754625404316_);}
	.st19{fill:url(#SVGID_00000167392562719608410240000003200005131508118692_);}
	.st20{opacity:0.1;fill:#6A3406;}
	.st21{opacity:0.2;fill:#683406;}
	.st22{opacity:0.3;fill:#673306;}
	.st23{opacity:0.4;fill:#653205;}
	.st24{opacity:0.5;fill:#643105;}
	.st25{opacity:0.6;fill:#623105;}
	.st26{fill:#613005;}
	.st27{fill:url(#SVGID_00000132783941453065179610000018047934217550412933_);}
	.st28{fill:url(#SVGID_00000131347334559245753920000004603269989894520212_);}
	.st29{fill:url(#SVGID_00000043458320798738736580000006915023293638643634_);}
	.st30{fill:url(#SVGID_00000010290805585683014160000001746609064270051504_);}
	.st31{fill:url(#SVGID_00000139980230615282067250000013422230639665616822_);}
	.st32{fill:url(#SVGID_00000101804559349854087620000011093915896515435650_);}
	.st33{fill:url(#SVGID_00000114066028272973385210000007403306514867801734_);}
	.st34{fill:url(#SVGID_00000035529081238886146820000004266345878029735846_);}
	.st35{fill:url(#SVGID_00000133526415858120740880000007597256276684969399_);}
	.st36{fill:url(#SVGID_00000139291299874409862220000013875702663331421082_);}
	.st37{fill:url(#SVGID_00000173843733957774111340000014937702708064071074_);}
	.st38{fill:url(#SVGID_00000109021865120263816370000017065522563613600918_);}
	.st39{fill:url(#SVGID_00000152977267108653599870000016283455104446831018_);}
</style>
<g>
	<g>
		<g>
			<path class="st0" d="M105,14.5c50,0,90.5,40.5,90.5,90.5S155,195.5,105,195.5S14.5,155,14.5,105S55,14.5,105,14.5z"/>
			<radialGradient id="SVGID_1_" cx="103.4236" cy="82.1725" r="122.3742" gradientUnits="userSpaceOnUse">
				<stop  offset="0" style="stop-color:#FFAA00;stop-opacity:0.15"/>
				<stop  offset="1" style="stop-color:#FFA200"/>
			</radialGradient>
			<path class="st1" d="M105,14.5c50,0,90.5,40.5,90.5,90.5S155,195.5,105,195.5S14.5,155,14.5,105S55,14.5,105,14.5z"/>
			
				<radialGradient id="SVGID_00000137132346546286795150000000534158672782057614_" cx="104.1952" cy="96.7582" r="120.6946" gradientUnits="userSpaceOnUse">
				<stop  offset="0.4507" style="stop-color:#FFAA00;stop-opacity:0"/>
				<stop  offset="0.9352" style="stop-color:#B85F06;stop-opacity:0.882"/>
				<stop  offset="1" style="stop-color:#A65607"/>
			</radialGradient>
			<path style="fill-rule:evenodd;clip-rule:evenodd;fill:url(#SVGID_00000137132346546286795150000000534158672782057614_);" d="
				M105,14.5c50,0,90.5,40.5,90.5,90.5S155,195.5,105,195.5S14.5,155,14.5,105S55,14.5,105,14.5z"/>
			
				<radialGradient id="SVGID_00000166663664385228934800000013283571233012631951_" cx="103.6893" cy="91.6991" r="105.5244" gradientUnits="userSpaceOnUse">
				<stop  offset="0.6234" style="stop-color:#FFAA00;stop-opacity:0"/>
				<stop  offset="0.9293" style="stop-color:#C47204;stop-opacity:0.8203"/>
				<stop  offset="1" style="stop-color:#B55D05"/>
			</radialGradient>
			<path style="fill-rule:evenodd;clip-rule:evenodd;fill:url(#SVGID_00000166663664385228934800000013283571233012631951_);" d="
				M105,14.5c50,0,90.5,40.5,90.5,90.5S155,195.5,105,195.5S14.5,155,14.5,105S55,14.5,105,14.5z"/>
			
				<radialGradient id="SVGID_00000118384690729997546420000017686938561529866676_" cx="104.6633" cy="106.8983" r="92.9646" gradientUnits="userSpaceOnUse">
				<stop  offset="0.8743" style="stop-color:#FFAA00;stop-opacity:0"/>
				<stop  offset="0.9126" style="stop-color:#FFA200;stop-opacity:0"/>
				<stop  offset="0.9416" style="stop-color:#F89408;stop-opacity:0.3315"/>
				<stop  offset="0.9982" style="stop-color:#E6681C;stop-opacity:0.9796"/>
				<stop  offset="1" style="stop-color:#E5661D"/>
			</radialGradient>
			<path style="fill-rule:evenodd;clip-rule:evenodd;fill:url(#SVGID_00000118384690729997546420000017686938561529866676_);" d="
				M105,14.5c50,0,90.5,40.5,90.5,90.5S155,195.5,105,195.5S14.5,155,14.5,105S55,14.5,105,14.5z"/>
			
				<radialGradient id="SVGID_00000030448036150611480280000003235246331953676471_" cx="106.0951" cy="74.8903" r="151.3034" gradientUnits="userSpaceOnUse">
				<stop  offset="0" style="stop-color:#FFFFFF;stop-opacity:0.5"/>
				<stop  offset="0.168" style="stop-color:#FFFCD7;stop-opacity:0.3845"/>
				<stop  offset="0.5425" style="stop-color:#FFF373;stop-opacity:0.1271"/>
				<stop  offset="0.7386" style="stop-color:#FFEF40;stop-opacity:0"/>
			</radialGradient>
			<path style="fill-rule:evenodd;clip-rule:evenodd;fill:url(#SVGID_00000030448036150611480280000003235246331953676471_);" d="
				M105,14.5c50,0,90.5,40.5,90.5,90.5S155,195.5,105,195.5S14.5,155,14.5,105S55,14.5,105,14.5z"/>
		</g>
		
			<linearGradient id="SVGID_00000150798392615840368740000004096916763605105080_" gradientUnits="userSpaceOnUse" x1="105" y1="190.5301" x2="105" y2="19.4699">
			<stop  offset="0.6" style="stop-color:#FFF480;stop-opacity:0"/>
			<stop  offset="1" style="stop-color:#FFFFFF;stop-opacity:0.95"/>
		</linearGradient>
		<path style="fill-rule:evenodd;clip-rule:evenodd;fill:url(#SVGID_00000150798392615840368740000004096916763605105080_);" d="
			M105,19.5c45.4,0,82.2,38.3,82.2,85.5s-36.8,85.5-82.2,85.5S22.8,152.2,22.8,105S59.6,19.5,105,19.5z"/>
	</g>
	<g>
		<path class="st7" d="M105,176.1c-29.3,0-59.9-19.2-61.5-56.3c0-1,0.3-2,1-2.8c0.7-0.7,1.6-1.2,2.6-1.2c0.3,0,0.7,0,1,0.2
			c13,3.8,29.1,8.4,56.9,8.4c28,0,44.1-4.6,56.9-8.4c0.3-0.2,0.7-0.2,1-0.2c1,0,2,0.5,2.6,1.2c0.7,0.8,1.2,1.6,1,2.8
			C164.9,156.6,134.4,176.1,105,176.1C105.5,176.1,105,176.1,105,176.1z"/>
		<path class="st8" d="M162.6,117.7c-13.5,3.9-29.4,8.4-57.4,8.4s-43.9-4.6-57.4-8.4c-1.3-0.3-2.6,0.7-2.6,2.1
			c1.5,34.7,30.1,54.8,60,54.6c29.9,0.2,58.6-19.9,60-54.6C165.3,118.3,164,117.2,162.6,117.7z"/>
		<path class="st9" d="M105.1,127.7c-27.8,0-43.6-4.4-56.9-8.2c-1.2-0.3-2.3,0.7-2.3,1.8c1.3,33.6,30.4,52.6,59.2,52.8
			c28.8,0.2,57.9-19.2,59.2-52.8c0-1.2-1.2-2.1-2.3-1.8C148.7,123.3,132.9,127.7,105.1,127.7z"/>
		<path class="st10" d="M105.1,129.2c-27.6,0-43.3-4.3-56.4-7.9c-1-0.3-2,0.5-1.8,1.5c1.2,32.4,30.6,51,58.4,51.2
			c27.6,0.2,57.2-18.6,58.4-51.2c0-1-1-1.8-1.8-1.5C148.4,124.9,132.8,129.2,105.1,129.2z"/>
		<path class="st11" d="M105.1,130.8c-27.5,0-42.9-4.1-56.1-7.7c-0.8-0.2-1.5,0.3-1.5,1.2c1,31.3,30.9,49.3,57.6,49.3
			s56.6-18.1,57.6-49.3c0-0.8-0.7-1.5-1.5-1.2C148.1,126.7,132.6,130.8,105.1,130.8z"/>
		<path class="st12" d="M105.1,132.5c-27.3,0-42.6-4.1-55.6-7.4c-0.7-0.2-1.2,0.3-1.2,1c0.8,30.1,31.3,47.5,56.7,47.5
			s55.9-17.4,56.7-47.5c0-0.7-0.5-1.2-1.2-1C147.7,128.4,132.5,132.5,105.1,132.5z"/>
		<path class="st13" d="M105.1,133.9C78,133.9,63,130,50,126.7c-0.3-0.2-0.8,0.2-0.8,0.7c0.7,28.9,31.6,45.9,55.9,45.9
			s55.3-16.8,55.9-45.9c0-0.5-0.3-0.7-0.8-0.7C147.4,130,132.5,133.9,105.1,133.9z"/>
		<path class="st14" d="M157.6,126.4c-12.3,3.1-27,6.9-52.5,6.9s-40.1-3.8-52.5-6.9c-1.3-0.3-2.5,0.5-2.5,1.6
			c1.3,28.3,31.9,44.6,54.8,44.6c23,0,53.5-16.1,54.8-44.6C160.1,127,158.9,126.1,157.6,126.4z"/>
		<path class="st15" d="M105.1,131.8c-25,0-45.7-3.5-54.1-7.2c-1.2-0.5-2.5,0.5-2.5,1.6c0.5,5.4,2.1,10.5,3.6,12
			c1.8,1.8,30.6,8.4,52.8,8.4s51-6.6,52.8-8.4c1.5-1.5,3.3-6.7,3.6-12c0.2-1.3-1.2-2.1-2.5-1.6C150.8,128.4,130.2,131.8,105.1,131.8
			z"/>
		
			<linearGradient id="SVGID_00000000187341928929540120000003030032239091019947_" gradientUnits="userSpaceOnUse" x1="48.4616" y1="133.586" x2="161.5384" y2="133.586">
			<stop  offset="0" style="stop-color:#CBCDCF"/>
			<stop  offset="8.025472e-02" style="stop-color:#D5D7D8"/>
			<stop  offset="0.3159" style="stop-color:#EDEFEF"/>
			<stop  offset="0.4609" style="stop-color:#F6F8F8"/>
			<stop  offset="0.6305" style="stop-color:#EDEFEF"/>
			<stop  offset="0.9061" style="stop-color:#D5D7D8"/>
			<stop  offset="1" style="stop-color:#CBCDCF"/>
		</linearGradient>
		<path style="fill-rule:evenodd;clip-rule:evenodd;fill:url(#SVGID_00000000187341928929540120000003030032239091019947_);" d="
			M105,130.3c-26.3,0-47.3-3.8-54.6-7.8c-0.9-0.5-2,0.2-1.9,1.2c0.5,5.7,2.5,11.4,4.1,13c1.9,1.8,30.4,8.2,52.4,8.2
			c22.1,0,50.6-6.4,52.4-8.2c1.6-1.6,3.6-7.2,4.1-13c0.1-1-1-1.7-1.9-1.2C152.3,126.4,131.3,130.3,105,130.3z"/>
	</g>
	<g>
		
			<radialGradient id="SVGID_00000160890469213841748820000011323169711512829861_" cx="590.8289" cy="28.24" r="37.4904" gradientTransform="matrix(0.7434 0.6689 1.011 -1.1237 -460.2207 -335.2135)" gradientUnits="userSpaceOnUse">
			<stop  offset="0.2882" style="stop-color:#FF9A00;stop-opacity:0"/>
			<stop  offset="0.6692" style="stop-color:#FF9A00;stop-opacity:0"/>
			<stop  offset="0.7232" style="stop-color:#F09101;stop-opacity:0.1633"/>
			<stop  offset="1" style="stop-color:#A66707"/>
		</radialGradient>
		<path style="fill:url(#SVGID_00000160890469213841748820000011323169711512829861_);" d="M20.8,72c6.2-15.8,16.7-29.4,30-39.4
			C55,43,52.9,55.3,44.4,63.8C38,70.2,29.2,72.9,20.8,72z"/>
		
			<radialGradient id="SVGID_00000100360026234569078290000012393708161441395352_" cx="549.1271" cy="126.5306" r="42.2443" gradientTransform="matrix(-0.3464 0.9381 1.418 0.5236 60.0287 -454.8505)" gradientUnits="userSpaceOnUse">
			<stop  offset="0.2882" style="stop-color:#FF9A00;stop-opacity:0"/>
			<stop  offset="0.615" style="stop-color:#FF9A00;stop-opacity:0"/>
			<stop  offset="0.6779" style="stop-color:#F09101;stop-opacity:0.1633"/>
			<stop  offset="1" style="stop-color:#A66707"/>
		</radialGradient>
		<path style="fill:url(#SVGID_00000100360026234569078290000012393708161441395352_);" d="M15.4,117.3c-0.5-4-0.9-8.2-0.9-12.3
			c0-16.8,4.6-32.6,12.6-46.1l23.1,22C50.2,82.4,27.7,105.1,15.4,117.3z"/>
		
			<radialGradient id="SVGID_00000047024937284528812500000006751921954356159905_" cx="280.433" cy="126.5306" r="42.2443" gradientTransform="matrix(0.3464 0.9381 -1.418 0.5236 243.0399 -202.7896)" gradientUnits="userSpaceOnUse">
			<stop  offset="0.2882" style="stop-color:#FF9A00;stop-opacity:0"/>
			<stop  offset="0.615" style="stop-color:#FF9A00;stop-opacity:0"/>
			<stop  offset="0.6779" style="stop-color:#F09101;stop-opacity:0.1633"/>
			<stop  offset="1" style="stop-color:#A66707"/>
		</radialGradient>
		<path style="fill:url(#SVGID_00000047024937284528812500000006751921954356159905_);" d="M194.6,117.3c0.5-4,0.9-8.2,0.9-12.3
			c0-16.8-4.6-32.6-12.6-46.1l-23.1,22C159.8,82.4,182.3,105.1,194.6,117.3z"/>
		<g>
			<path class="st20" d="M38.8,58.3l-14.1,5c-2.7,5.2-4.9,10.6-6.6,16.4l17.3,10.6l0.8,29.6c0.1,3.1,3.7,4.7,6,2.7l22.6-19.2
				l28.4,8.4c3,0.9,5.6-2.1,4.4-4.9L86.4,79.6l16.8-24.5c1.7-2.5-0.2-6-3.3-5.7l-29.5,2.2L54,30.3c-3.6,2.5-7.1,5.2-10.3,8.2
				L38.8,58.3z"/>
			<path class="st21" d="M38.7,57.2l-13.2,4.7c-2.9,5.3-5.3,11-7,16.9l16.9,10.4l0.8,29.6c0.1,3.1,3.7,4.7,6,2.7l22.6-19.2l28.4,8.4
				c3,0.9,5.6-2.1,4.4-4.9L86.2,78.5L103,54c1.7-2.5-0.2-6-3.3-5.7l-29.5,2.2L54.4,30c-4,2.7-7.8,5.8-11.3,9.1L38.7,57.2z"/>
			<path class="st22" d="M38.5,56l-12.3,4.3c-3.1,5.5-5.7,11.4-7.6,17.5L35.1,88l0.8,29.6c0.1,3.1,3.7,4.7,6,2.7l22.6-19.2l28.4,8.4
				c3,0.9,5.6-2.1,4.4-4.9L86.1,77.4l16.8-24.5c1.7-2.5-0.2-6-3.3-5.7L70,49.4L54.9,29.7c-4.4,2.9-8.5,6.2-12.3,9.9L38.5,56z"/>
			<path class="st23" d="M38.4,54.9l-11.3,4C23.8,64.6,21,70.7,19,77L35,86.9l0.8,29.6c0.1,3.1,3.7,4.7,6,2.7l22.6-19.2l28.4,8.4
				c3,0.9,5.6-2.1,4.4-4.9L85.9,76.3l16.8-24.5c1.7-2.5-0.2-6-3.3-5.7l-29.5,2.2L55.4,29.4c-4.8,3.1-9.3,6.7-13.3,10.7L38.4,54.9z"
				/>
			<path class="st24" d="M38.3,53.8L28,57.5c-3.6,5.8-6.6,12.1-8.8,18.7l15.6,9.6l0.8,29.6c0.1,3.1,3.7,4.7,6,2.7l22.6-19.2
				l28.4,8.4c3,0.9,5.6-2.1,4.4-4.9L85.8,75.2l16.8-24.5c1.7-2.5-0.2-6-3.3-5.7l-29.5,2.2L55.8,29.1c-5.2,3.4-10,7.2-14.4,11.5
				L38.3,53.8z"/>
			<path class="st25" d="M41,41.1l-2.8,11.6L29,56c-3.9,6-7.1,12.5-9.5,19.4l15.2,9.4l0.8,29.6c0.1,3.1,3.7,4.7,6,2.7l22.6-19.2
				l28.4,8.4c3,0.9,5.6-2.1,4.4-4.9L85.7,74.1l16.8-24.5c1.7-2.5-0.2-6-3.3-5.7l-29.5,2.2L56.3,28.7C50.8,32.3,45.6,36.4,41,41.1z"
				/>
			<g>
				<path class="st26" d="M10.1,61.5L38,51.6l7-28.8c0.7-3,4.6-3.8,6.5-1.4l18,23.5L99,42.7c3.1-0.2,5,3.2,3.3,5.7L85.5,73
					l11.3,27.2c1.2,2.9-1.5,5.8-4.4,4.9L64,96.7l-22.6,19.2c-2.3,2-6,0.4-6-2.7l-0.8-29.6L9.4,68.1C6.8,66.5,7.2,62.5,10.1,61.5z"/>
			</g>
			<path class="st20" d="M185.3,63.3l-14.1-5l-4.8-19.7c-3.2-3-6.7-5.7-10.3-8.2l-16.4,21.3l-29.5-2.2c-3.1-0.2-5,3.2-3.3,5.7
				l16.8,24.5l-11.3,27.2c-1.2,2.9,1.5,5.8,4.4,4.9l28.4-8.4l22.6,19.2c2.3,2,6,0.4,6-2.7l0.8-29.6l17.3-10.6
				C190.2,73.9,188,68.4,185.3,63.3z"/>
			<path class="st21" d="M184.5,61.8l-13.2-4.7L166.9,39c-3.5-3.3-7.3-6.4-11.3-9.1l-15.8,20.5l-29.5-2.2c-3.1-0.2-5,3.2-3.3,5.7
				l16.8,24.5l-11.3,27.2c-1.2,2.9,1.5,5.8,4.4,4.9l28.4-8.4l22.6,19.2c2.3,2,6,0.4,6-2.7l0.8-29.6l16.9-10.4
				C189.8,72.8,187.4,67.2,184.5,61.8z"/>
			<path class="st22" d="M183.7,60.4L171.5,56l-4-16.5c-3.8-3.6-7.9-7-12.3-9.9L140,49.4l-29.5-2.2c-3.1-0.2-5,3.2-3.3,5.7
				l16.8,24.5l-11.3,27.2c-1.2,2.9,1.5,5.8,4.4,4.9l28.4-8.4l22.6,19.2c2.3,2,6,0.4,6-2.7l0.8-29.6l16.5-10.2
				C189.4,71.7,186.8,65.9,183.7,60.4z"/>
			<path class="st23" d="M182.9,58.9l-11.3-4L168,40.1c-4.1-4-8.6-7.6-13.3-10.7l-14.5,18.9L110.6,46c-3.1-0.2-5,3.2-3.3,5.7
				l16.8,24.5l-11.3,27.2c-1.2,2.9,1.5,5.8,4.4,4.9l28.4-8.4l22.6,19.2c2.3,2,6,0.4,6-2.7l0.8-29.6L191,77
				C189,70.7,186.2,64.6,182.9,58.9z"/>
			<path class="st24" d="M182,57.5l-10.2-3.6l-3.2-13.3c-4.4-4.3-9.2-8.2-14.4-11.5l-13.9,18.1l-29.5-2.2c-3.1-0.2-5,3.2-3.3,5.7
				l16.8,24.5l-11.3,27.2c-1.2,2.9,1.5,5.8,4.4,4.9l28.4-8.4l22.6,19.2c2.3,2,6,0.4,6-2.7l0.8-29.6l15.6-9.6
				C188.5,69.6,185.6,63.3,182,57.5z"/>
			<path class="st25" d="M181,56l-9.1-3.2L169,41.1c-4.6-4.7-9.8-8.8-15.4-12.3l-13.3,17.3l-29.5-2.2c-3.1-0.2-5,3.2-3.3,5.7
				l16.8,24.5l-11.3,27.2c-1.2,2.9,1.5,5.8,4.4,4.9l28.4-8.4l22.6,19.2c2.3,2,6,0.4,6-2.7l0.8-29.6l15.2-9.4
				C188.1,68.5,184.9,62,181,56z"/>
			<g>
				<path class="st26" d="M199.9,61.5L172,51.6l-7-28.8c-0.7-3-4.6-3.8-6.5-1.4l-18,23.5L111,42.7c-3.1-0.2-5,3.2-3.3,5.7L124.5,73
					l-11.3,27.2c-1.2,2.9,1.5,5.8,4.4,4.9l28.4-8.4l22.6,19.2c2.3,2,6,0.4,6-2.7l0.8-29.6l25.2-15.5
					C203.2,66.5,202.8,62.5,199.9,61.5z"/>
			</g>
		</g>
		
			<radialGradient id="SVGID_00000123420981360463429470000006643869654555660711_" cx="723.1721" cy="-11.2312" r="47.5296" gradientTransform="matrix(-0.9784 0.2068 0.2068 0.9784 767.2396 -73.0466)" gradientUnits="userSpaceOnUse">
			<stop  offset="0" style="stop-color:#FDEC6B"/>
			<stop  offset="0.1837" style="stop-color:#FBE563"/>
			<stop  offset="0.4698" style="stop-color:#F4D24D"/>
			<stop  offset="0.8207" style="stop-color:#E9B329"/>
			<stop  offset="1" style="stop-color:#E3A114"/>
		</radialGradient>
		<path style="fill:url(#SVGID_00000123420981360463429470000006643869654555660711_);" d="M10.1,61.5L38,51.6l7-28.8
			c0.7-3,4.6-3.8,6.5-1.4l18,23.5L99,42.7c3.1-0.2,5,3.2,3.3,5.7L85.5,73l11.3,27.2c1.2,2.9-1.5,5.8-4.4,4.9L64,96.7l-22.6,19.2
			c-2.3,2-6,0.4-6-2.7l-0.8-29.6L9.4,68.1C6.8,66.5,7.2,62.5,10.1,61.5z"/>
		
			<radialGradient id="SVGID_00000085239104448797915510000004523474411198814117_" cx="726.4044" cy="95.7785" r="52.4458" gradientTransform="matrix(-0.9784 0.2068 0.4108 1.9434 747.7023 -165.4709)" gradientUnits="userSpaceOnUse">
			<stop  offset="0.2123" style="stop-color:#FDEC6B;stop-opacity:0"/>
			<stop  offset="0.2161" style="stop-color:#FBE968;stop-opacity:7.798314e-03"/>
			<stop  offset="0.251" style="stop-color:#EECE4D;stop-opacity:7.913685e-02"/>
			<stop  offset="0.2906" style="stop-color:#E3B937;stop-opacity:0.16"/>
			<stop  offset="0.3374" style="stop-color:#DBA826;stop-opacity:0.2556"/>
			<stop  offset="0.3953" style="stop-color:#D59D1B;stop-opacity:0.3738"/>
			<stop  offset="0.4765" style="stop-color:#D29614;stop-opacity:0.5396"/>
			<stop  offset="0.7019" style="stop-color:#D19412"/>
			<stop  offset="0.7583" style="stop-color:#D49917;stop-opacity:0.8107"/>
			<stop  offset="0.8262" style="stop-color:#DBA826;stop-opacity:0.5831"/>
			<stop  offset="0.8999" style="stop-color:#E7C03E;stop-opacity:0.3357"/>
			<stop  offset="0.9773" style="stop-color:#F7E160;stop-opacity:7.598794e-02"/>
			<stop  offset="1" style="stop-color:#FDEC6B;stop-opacity:0"/>
		</radialGradient>
		<path style="fill:url(#SVGID_00000085239104448797915510000004523474411198814117_);" d="M10.1,61.5L38,51.6l7-28.8
			c0.7-3,4.6-3.8,6.5-1.4l18,23.5L99,42.7c3.1-0.2,5,3.2,3.3,5.7L85.5,73l11.3,27.2c1.2,2.9-1.5,5.8-4.4,4.9L64,96.7l-22.6,19.2
			c-2.3,2-6,0.4-6-2.7l-0.8-29.6L9.4,68.1C6.8,66.5,7.2,62.5,10.1,61.5z"/>
		
			<radialGradient id="SVGID_00000054946751613135507280000006258611948875720377_" cx="655.4854" cy="9.865" r="52.4458" gradientTransform="matrix(1 0 0 -0.7601 -527.5192 79.6692)" gradientUnits="userSpaceOnUse">
			<stop  offset="0.6347" style="stop-color:#C78800"/>
			<stop  offset="0.6969" style="stop-color:#CA8D05;stop-opacity:0.8299"/>
			<stop  offset="0.7716" style="stop-color:#D19A14;stop-opacity:0.6253"/>
			<stop  offset="0.8528" style="stop-color:#DDB12C;stop-opacity:0.403"/>
			<stop  offset="0.938" style="stop-color:#EED14E;stop-opacity:0.1696"/>
			<stop  offset="1" style="stop-color:#FDEC6B;stop-opacity:0"/>
		</radialGradient>
		<path style="fill:url(#SVGID_00000054946751613135507280000006258611948875720377_);" d="M10.1,61.5L38,51.6l7-28.8
			c0.7-3,4.6-3.8,6.5-1.4l18,23.5L99,42.7c3.1-0.2,5,3.2,3.3,5.7L85.5,73l11.3,27.2c1.2,2.9-1.5,5.8-4.4,4.9L64,96.7l-22.6,19.2
			c-2.3,2-6,0.4-6-2.7l-0.8-29.6L9.4,68.1C6.8,66.5,7.2,62.5,10.1,61.5z"/>
		
			<radialGradient id="SVGID_00000098929614846016220380000009355412870066107572_" cx="790.3819" cy="5.3433" r="52.4458" gradientTransform="matrix(1 0 0 -0.7601 -795.3308 99.7071)" gradientUnits="userSpaceOnUse">
			<stop  offset="0.6896" style="stop-color:#C78800"/>
			<stop  offset="0.7424" style="stop-color:#CA8D05;stop-opacity:0.8299"/>
			<stop  offset="0.8059" style="stop-color:#D19A14;stop-opacity:0.6253"/>
			<stop  offset="0.8749" style="stop-color:#DDB12C;stop-opacity:0.403"/>
			<stop  offset="0.9474" style="stop-color:#EED14E;stop-opacity:0.1696"/>
			<stop  offset="1" style="stop-color:#FDEC6B;stop-opacity:0"/>
		</radialGradient>
		<path style="fill:url(#SVGID_00000098929614846016220380000009355412870066107572_);" d="M10.1,61.5L38,51.6l7-28.8
			c0.7-3,4.6-3.8,6.5-1.4l18,23.5L99,42.7c3.1-0.2,5,3.2,3.3,5.7L85.5,73l11.3,27.2c1.2,2.9-1.5,5.8-4.4,4.9L64,96.7l-22.6,19.2
			c-2.3,2-6,0.4-6-2.7l-0.8-29.6L9.4,68.1C6.8,66.5,7.2,62.5,10.1,61.5z"/>
		
			<linearGradient id="SVGID_00000087378999882084663410000008978795745513402537_" gradientUnits="userSpaceOnUse" x1="720.2988" y1="-48.7555" x2="726.1347" y2="6.6855" gradientTransform="matrix(-0.9784 0.2068 0.2068 0.9784 767.2396 -73.0466)">
			<stop  offset="0.3492" style="stop-color:#FFFFFF"/>
			<stop  offset="1" style="stop-color:#FFFFFF;stop-opacity:0.1"/>
		</linearGradient>
		<path style="fill:url(#SVGID_00000087378999882084663410000008978795745513402537_);" d="M75.6,74.3l8.4-4.9l15.6-23.2
			c-0.2-0.3,1.9-0.4-31.6,2.2c-20.5-26.7-19.5-25-19.5-25s0.3-2-7.7,30.8C9.1,65.3,11,64.5,10.9,64.9l14.9,9
			C41.1,83.2,60.2,83.3,75.6,74.3z"/>
		
			<linearGradient id="SVGID_00000175289995633777304790000005548393426508642208_" gradientUnits="userSpaceOnUse" x1="550.892" y1="23.4854" x2="531.8587" y2="101.8578" gradientTransform="matrix(-1 0 0 1 598.3714 0)">
			<stop  offset="9.068298e-02" style="stop-color:#FFFFFF;stop-opacity:0.5"/>
			<stop  offset="0.649" style="stop-color:#FFFFFF;stop-opacity:0"/>
		</linearGradient>
		<path style="fill:url(#SVGID_00000175289995633777304790000005548393426508642208_);" d="M10.1,61.5L38,51.6l7-28.8
			c0.7-3,4.6-3.8,6.5-1.4l18,23.5L99,42.7c3.1-0.2,5,3.2,3.3,5.7L85.5,73l11.3,27.2c1.2,2.9-1.5,5.8-4.4,4.9L64,96.7l-22.6,19.2
			c-2.3,2-6,0.4-6-2.7l-0.8-29.6L9.4,68.1C6.8,66.5,7.2,62.5,10.1,61.5z"/>
		
			<radialGradient id="SVGID_00000140016679454775427220000008321904097022402968_" cx="322.1348" cy="28.24" r="37.4904" gradientTransform="matrix(-0.7434 0.6689 -1.011 -1.1237 470.4784 -155.493)" gradientUnits="userSpaceOnUse">
			<stop  offset="0.2882" style="stop-color:#FF9A00;stop-opacity:0"/>
			<stop  offset="0.6692" style="stop-color:#FF9A00;stop-opacity:0"/>
			<stop  offset="0.7232" style="stop-color:#F09101;stop-opacity:0.1633"/>
			<stop  offset="1" style="stop-color:#A66707"/>
		</radialGradient>
		<path style="fill:url(#SVGID_00000140016679454775427220000008321904097022402968_);" d="M189.2,72c-6.2-15.8-16.7-29.4-30-39.4
			c-4.2,10.4-2.1,22.8,6.3,31.2C172,70.2,180.8,72.9,189.2,72z"/>
		
			<radialGradient id="SVGID_00000055677876426927065300000012783539564668142981_" cx="460.2873" cy="44.3393" r="47.5296" gradientTransform="matrix(0.9784 0.2068 -0.2068 0.9784 -288.5455 -73.0466)" gradientUnits="userSpaceOnUse">
			<stop  offset="0" style="stop-color:#FDEC6B"/>
			<stop  offset="0.1837" style="stop-color:#FBE563"/>
			<stop  offset="0.4698" style="stop-color:#F4D24D"/>
			<stop  offset="0.8207" style="stop-color:#E9B329"/>
			<stop  offset="1" style="stop-color:#E3A114"/>
		</radialGradient>
		<path style="fill:url(#SVGID_00000055677876426927065300000012783539564668142981_);" d="M199.9,61.5L172,51.6l-7-28.8
			c-0.7-3-4.6-3.8-6.5-1.4l-18,23.5L111,42.7c-3.1-0.2-5,3.2-3.3,5.7L124.5,73l-11.3,27.2c-1.2,2.9,1.5,5.8,4.4,4.9l28.4-8.4
			l22.6,19.2c2.3,2,6,0.4,6-2.7l0.8-29.6l25.2-15.5C203.2,66.5,202.8,62.5,199.9,61.5z"/>
		
			<radialGradient id="SVGID_00000087376089746046107290000010257209849447921550_" cx="463.5197" cy="151.349" r="52.4458" gradientTransform="matrix(0.9784 0.2068 -0.4108 1.9434 -257.6727 -219.0952)" gradientUnits="userSpaceOnUse">
			<stop  offset="0.2123" style="stop-color:#FDEC6B;stop-opacity:0"/>
			<stop  offset="0.2161" style="stop-color:#FBE968;stop-opacity:7.798314e-03"/>
			<stop  offset="0.251" style="stop-color:#EECE4D;stop-opacity:7.913685e-02"/>
			<stop  offset="0.2906" style="stop-color:#E3B937;stop-opacity:0.16"/>
			<stop  offset="0.3374" style="stop-color:#DBA826;stop-opacity:0.2556"/>
			<stop  offset="0.3953" style="stop-color:#D59D1B;stop-opacity:0.3738"/>
			<stop  offset="0.4765" style="stop-color:#D29614;stop-opacity:0.5396"/>
			<stop  offset="0.7019" style="stop-color:#D19412"/>
			<stop  offset="0.7583" style="stop-color:#D49917;stop-opacity:0.8107"/>
			<stop  offset="0.8262" style="stop-color:#DBA826;stop-opacity:0.5831"/>
			<stop  offset="0.8999" style="stop-color:#E7C03E;stop-opacity:0.3357"/>
			<stop  offset="0.9773" style="stop-color:#F7E160;stop-opacity:7.598794e-02"/>
			<stop  offset="1" style="stop-color:#FDEC6B;stop-opacity:0"/>
		</radialGradient>
		<path style="fill:url(#SVGID_00000087376089746046107290000010257209849447921550_);" d="M199.9,61.5L172,51.6l-7-28.8
			c-0.7-3-4.6-3.8-6.5-1.4l-18,23.5L111,42.7c-3.1-0.2-5,3.2-3.3,5.7L124.5,73l-11.3,27.2c-1.2,2.9,1.5,5.8,4.4,4.9l28.4-8.4
			l22.6,19.2c2.3,2,6,0.4,6-2.7l0.8-29.6l25.2-15.5C203.2,66.5,202.8,62.5,199.9,61.5z"/>
		
			<radialGradient id="SVGID_00000099628108094748498550000008246726939995476909_" cx="392.6006" cy="65.4355" r="52.4458" gradientTransform="matrix(-1 0 0 -0.7601 474.6344 121.9088)" gradientUnits="userSpaceOnUse">
			<stop  offset="0.6347" style="stop-color:#C78800"/>
			<stop  offset="0.6969" style="stop-color:#CA8D05;stop-opacity:0.8299"/>
			<stop  offset="0.7716" style="stop-color:#D19A14;stop-opacity:0.6253"/>
			<stop  offset="0.8528" style="stop-color:#DDB12C;stop-opacity:0.403"/>
			<stop  offset="0.938" style="stop-color:#EED14E;stop-opacity:0.1696"/>
			<stop  offset="1" style="stop-color:#FDEC6B;stop-opacity:0"/>
		</radialGradient>
		<path style="fill:url(#SVGID_00000099628108094748498550000008246726939995476909_);" d="M199.9,61.5L172,51.6l-7-28.8
			c-0.7-3-4.6-3.8-6.5-1.4l-18,23.5L111,42.7c-3.1-0.2-5,3.2-3.3,5.7L124.5,73l-11.3,27.2c-1.2,2.9,1.5,5.8,4.4,4.9l28.4-8.4
			l22.6,19.2c2.3,2,6,0.4,6-2.7l0.8-29.6l25.2-15.5C203.2,66.5,202.8,62.5,199.9,61.5z"/>
		
			<radialGradient id="SVGID_00000012450065340627443910000016213766052899801273_" cx="527.4971" cy="60.9138" r="52.4458" gradientTransform="matrix(-1 0 0 -0.7601 742.446 141.9467)" gradientUnits="userSpaceOnUse">
			<stop  offset="0.6896" style="stop-color:#C78800"/>
			<stop  offset="0.7424" style="stop-color:#CA8D05;stop-opacity:0.8299"/>
			<stop  offset="0.8059" style="stop-color:#D19A14;stop-opacity:0.6253"/>
			<stop  offset="0.8749" style="stop-color:#DDB12C;stop-opacity:0.403"/>
			<stop  offset="0.9474" style="stop-color:#EED14E;stop-opacity:0.1696"/>
			<stop  offset="1" style="stop-color:#FDEC6B;stop-opacity:0"/>
		</radialGradient>
		<path style="fill:url(#SVGID_00000012450065340627443910000016213766052899801273_);" d="M199.9,61.5L172,51.6l-7-28.8
			c-0.7-3-4.6-3.8-6.5-1.4l-18,23.5L111,42.7c-3.1-0.2-5,3.2-3.3,5.7L124.5,73l-11.3,27.2c-1.2,2.9,1.5,5.8,4.4,4.9l28.4-8.4
			l22.6,19.2c2.3,2,6,0.4,6-2.7l0.8-29.6l25.2-15.5C203.2,66.5,202.8,62.5,199.9,61.5z"/>
		
			<linearGradient id="SVGID_00000093168046494327897000000002444043788300558990_" gradientUnits="userSpaceOnUse" x1="457.414" y1="6.8149" x2="463.2499" y2="62.256" gradientTransform="matrix(0.9784 0.2068 -0.2068 0.9784 -288.5455 -73.0466)">
			<stop  offset="0.3492" style="stop-color:#FFFFFF"/>
			<stop  offset="1" style="stop-color:#FFFFFF;stop-opacity:0.1"/>
		</linearGradient>
		<path style="fill:url(#SVGID_00000093168046494327897000000002444043788300558990_);" d="M134.4,74.3l-8.4-4.9l-15.6-23.2
			c0.2-0.3-1.9-0.4,31.6,2.2c20.5-26.7,19.5-25,19.5-25s-0.3-2,7.7,30.8c31.7,11.2,29.8,10.4,29.8,10.8l-14.9,9
			C168.9,83.2,149.8,83.3,134.4,74.3z"/>
		
			<linearGradient id="SVGID_00000141413144469079997530000004169891223941570700_" gradientUnits="userSpaceOnUse" x1="282.1979" y1="23.4854" x2="263.1646" y2="101.8578" gradientTransform="matrix(1 0 0 1 -119.6774 0)">
			<stop  offset="9.068298e-02" style="stop-color:#FFFFFF;stop-opacity:0.5"/>
			<stop  offset="0.649" style="stop-color:#FFFFFF;stop-opacity:0"/>
		</linearGradient>
		<path style="fill:url(#SVGID_00000141413144469079997530000004169891223941570700_);" d="M199.9,61.5L172,51.6l-7-28.8
			c-0.7-3-4.6-3.8-6.5-1.4l-18,23.5L111,42.7c-3.1-0.2-5,3.2-3.3,5.7L124.5,73l-11.3,27.2c-1.2,2.9,1.5,5.8,4.4,4.9l28.4-8.4
			l22.6,19.2c2.3,2,6,0.4,6-2.7l0.8-29.6l25.2-15.5C203.2,66.5,202.8,62.5,199.9,61.5z"/>
	</g>
</g>
</svg>
