<svg xmlns="http://www.w3.org/2000/svg" width="260" height="59.338" viewBox="0 0 260 59.338"><g transform="translate(174.391 49.714)"><path d="M1095.839,612.937a3.352,3.352,0,1,1,.98,2.426A3.286,3.286,0,0,1,1095.839,612.937Zm1.125,0a2.248,2.248,0,0,0,.658,1.653,2.311,2.311,0,0,0,3.25,0,2.389,2.389,0,0,0,0-3.306,2.311,2.311,0,0,0-3.25,0A2.248,2.248,0,0,0,1096.964,612.937Z" transform="translate(-1095.839 -606.721)" fill="#fff"/><path d="M1122.027,616.175V609.7h1.125v.942a2.283,2.283,0,0,1,2.1-1.113,2.4,2.4,0,0,1,1.828.721,2.718,2.718,0,0,1,.683,1.948v3.977h-1.126v-3.9a1.677,1.677,0,0,0-.427-1.221,1.57,1.57,0,0,0-1.179-.439,1.789,1.789,0,0,0-1.375.539,2.26,2.26,0,0,0-.5,1.593v3.426Z" transform="translate(-1113.448 -606.721)" fill="#fff"/><path d="M1145.627,610.411v-9.453h1.126v9.453Z" transform="translate(-1129.318 -600.958)" fill="#fff"/><path d="M1155.241,603.125a.719.719,0,0,1-.221-.534.762.762,0,0,1,.765-.765.719.719,0,0,1,.531.225.742.742,0,0,1,.221.541.755.755,0,0,1-.752.752A.743.743,0,0,1,1155.241,603.125Zm-.025,7.87V604.52h1.125V611Z" transform="translate(-1135.634 -601.542)" fill="#fff"/><path d="M1165.61,616.175V609.7h1.125v.942a2.283,2.283,0,0,1,2.1-1.113,2.4,2.4,0,0,1,1.828.721,2.718,2.718,0,0,1,.682,1.948v3.977h-1.125v-3.9a1.677,1.677,0,0,0-.427-1.221,1.57,1.57,0,0,0-1.179-.439,1.788,1.788,0,0,0-1.375.539,2.259,2.259,0,0,0-.5,1.593v3.426Z" transform="translate(-1142.755 -606.721)" fill="#fff"/><path d="M1188.11,612.937a3.331,3.331,0,0,1,.942-2.438,3.284,3.284,0,0,1,2.447-.97,2.96,2.96,0,0,1,2.321,1.012,3.622,3.622,0,0,1,.866,2.915h-5.426a2.155,2.155,0,0,0,.79,1.353,2.459,2.459,0,0,0,1.556.487,2.02,2.02,0,0,0,1.865-.955l.955.547a3.178,3.178,0,0,1-2.846,1.457,3.448,3.448,0,0,1-2.516-.958A3.349,3.349,0,0,1,1188.11,612.937Zm1.15-.468h4.325a2.245,2.245,0,0,0-.714-1.4,2.024,2.024,0,0,0-1.372-.494,2.165,2.165,0,0,0-2.239,1.891Z" transform="translate(-1157.885 -606.721)" fill="#fff"/><path d="M1222.879,607.412v-1.088h1.284v-1.473l1.125-.341v1.815h1.72v1.088h-1.72v3.51a.974.974,0,0,0,.19.68.769.769,0,0,0,.569.205c.05,0,.106,0,.165.007q.335,0,.8-.026V612.8a6.126,6.126,0,0,1-.841.063,2.425,2.425,0,0,1-1.321-.3,1.8,1.8,0,0,1-.683-1.638v-3.51Z" transform="translate(-1181.265 -603.346)" fill="#fff"/><path d="M1240.863,611.2v-9.068h1.125v3.534a2.284,2.284,0,0,1,2.1-1.113,2.4,2.4,0,0,1,1.828.721,2.716,2.716,0,0,1,.683,1.948V611.2h-1.125v-3.9a1.677,1.677,0,0,0-.427-1.221,1.571,1.571,0,0,0-1.179-.439,1.788,1.788,0,0,0-1.375.54,2.259,2.259,0,0,0-.5,1.593V611.2Z" transform="translate(-1193.358 -601.75)" fill="#fff"/><path d="M1263.363,612.937a3.33,3.33,0,0,1,.942-2.438,3.284,3.284,0,0,1,2.447-.97,2.96,2.96,0,0,1,2.321,1.012,3.62,3.62,0,0,1,.866,2.915h-5.426a2.156,2.156,0,0,0,.79,1.353,2.459,2.459,0,0,0,1.556.487,2.02,2.02,0,0,0,1.866-.955l.955.547a3.179,3.179,0,0,1-2.846,1.457,3.448,3.448,0,0,1-2.516-.958A3.349,3.349,0,0,1,1263.363,612.937Zm1.151-.468h4.325a2.243,2.243,0,0,0-.714-1.4,2.025,2.025,0,0,0-1.373-.494,2.165,2.165,0,0,0-2.239,1.891Z" transform="translate(-1208.487 -606.721)" fill="#fff"/><path d="M1287.658,612.937a3.352,3.352,0,1,1,.98,2.426A3.286,3.286,0,0,1,1287.658,612.937Zm1.125,0a2.248,2.248,0,0,0,.658,1.653,2.312,2.312,0,0,0,3.25,0,2.391,2.391,0,0,0,0-3.306,2.312,2.312,0,0,0-3.25,0A2.249,2.249,0,0,0,1288.783,612.937Z" transform="translate(-1224.824 -606.721)" fill="#fff"/><path d="M1313.845,616.291v-6.475h1.126v1.094a2.032,2.032,0,0,1,2.023-1.208v1.182h-.12a2.016,2.016,0,0,0-1.3.442,1.859,1.859,0,0,0-.6,1.535v3.43Z" transform="translate(-1242.433 -606.838)" fill="#fff"/><path d="M1327.726,603.125a.72.72,0,0,1-.222-.534.741.741,0,0,1,.222-.541.733.733,0,0,1,.544-.225.72.72,0,0,1,.531.225.743.743,0,0,1,.221.541.755.755,0,0,1-.752.752A.743.743,0,0,1,1327.726,603.125ZM1327.7,611V604.52h1.125V611Z" transform="translate(-1251.617 -601.542)" fill="#fff"/><path d="M1336.994,612.937a3.331,3.331,0,0,1,.942-2.438,3.285,3.285,0,0,1,2.447-.97,2.96,2.96,0,0,1,2.321,1.012,3.62,3.62,0,0,1,.866,2.915h-5.426a2.157,2.157,0,0,0,.791,1.353,2.458,2.458,0,0,0,1.556.487,2.02,2.02,0,0,0,1.865-.955l.955.547a3.179,3.179,0,0,1-2.846,1.457,3.448,3.448,0,0,1-2.516-.958A3.349,3.349,0,0,1,1336.994,612.937Zm1.15-.468h4.325a2.245,2.245,0,0,0-.714-1.4,2.026,2.026,0,0,0-1.373-.494,2.165,2.165,0,0,0-2.239,1.891Z" transform="translate(-1257.999 -606.721)" fill="#fff"/></g><g transform="translate(0 10.573)"><path d="M595.943,502.42c-.649,1.815-1.167,4.02-1.686,6.029h-.129c-.519-2.01-1.037-4.149-1.686-6.029l-4.214-11.864h-5.7l-4.214,11.864c-.649,1.815-1.3,4.149-1.751,6.029h-.13a58.746,58.746,0,0,0-1.686-6.029l-4.149-11.864h-7.132l10.7,29.758h4.214l4.668-13.1c.648-1.88,1.361-4.279,1.945-6.678h.129c.649,2.4,1.361,4.8,2.075,6.807l4.668,12.967H596.2l10.7-29.758h-6.742Z" transform="translate(-563.462 -487.579)" fill="#fff"/><path d="M726.822,510.156c-.084.057-.173.113-.261.168l-2.508-1.614.567,2.615a16.218,16.218,0,0,1-6.161,1.164c-5.9,0-9.271-3.89-9.531-6.937h16.014l3.76-3.76a13.029,13.029,0,0,0,.195-2.334c0-5.77-4.8-11.475-12.9-11.475-7.65,0-14.976,5.705-14.976,15.495,0,9.336,7.326,15.56,16.013,15.56a20.183,20.183,0,0,0,8.868-1.811l.57,2.63,4.365-6.782-4.048-2.605Zm-10.7-16.078a5.369,5.369,0,0,1,5.381,5.187c0,.259-.065.454-.065.713H709.123A7.428,7.428,0,0,1,716.125,494.077Z" transform="translate(-655.959 -485.849)" fill="#fff"/><path d="M817.064,508.433l-6.224-2.2a1.045,1.045,0,0,1-.778-.973c0-1.037,1.037-1.3,2.788-1.361,6.289-.195,10.243-4.668,10.243-9.725a6.713,6.713,0,0,0-1.037-3.63,8.845,8.845,0,0,0,2.715-.493l.579,2.542,4.293-6.828-6.828-4.293.578,2.534a11.346,11.346,0,0,1-3.541.638,16.126,16.126,0,0,1-4.149-.519,14.917,14.917,0,0,0-4.085-.519c-7.066,0-11.6,4.214-11.6,10.243a9.152,9.152,0,0,0,4.6,7.974,5.585,5.585,0,0,0-3.7,4.473l3.566,3.5a8.162,8.162,0,0,0-6.289,8.234c0,6.094,5.511,10.762,13.809,10.762,8.168,0,13.614-4.344,13.614-10.114C825.622,513.3,822.51,510.378,817.064,508.433Zm-5.446-19a4.33,4.33,0,1,1-4.732,4.344A4.566,4.566,0,0,1,811.618,489.437Zm.259,33.259c-4.344,0-6.548-2.269-6.548-4.733,0-2.658,2.01-4.6,4.927-4.668l4.279,1.232c2.4.714,3.7,2.269,3.7,4.084C818.231,520.621,816.091,522.7,811.877,522.7Z" transform="translate(-721.305 -481.468)" fill="#fff"/></g><g transform="translate(108.79)"><path d="M911.586,488.181c-4.473,0-7.52,1.815-9.011,4.214h-.065v-3.436h-6.937V533.3h7.521V516.9c1.167,1.1,4.6,2.2,7.715,2.2,8.3,0,14.912-6.224,14.912-15.495C925.72,493.5,918.394,488.181,911.586,488.181Zm-1.88,24.442a8.657,8.657,0,0,1-6.613-2.788V498.36a7.712,7.712,0,0,1,6.613-3.371c4.668,0,8.3,3.631,8.3,8.817C918.005,508.927,914.374,512.623,909.706,512.623Z" transform="translate(-895.573 -475.409)" fill="#fff"/><path d="M1007.981,449.191c-1.426,0-4.344,2.918-4.344,4.344s2.918,4.344,4.344,4.344c1.491,0,4.279-2.917,4.279-4.344S1009.472,449.191,1007.981,449.191Z" transform="translate(-968.239 -449.191)" fill="#fff"/><rect width="7.844" height="29.369" transform="translate(35.788 13.55)" fill="#fff"/><path d="M1057.465,495.913h-.065v-6.289h-7.65v29.369h7.715V504.731c0-5.77,3.371-7.456,6.807-7.456a7.952,7.952,0,0,1,2.464.454l1.945-8.169a9.791,9.791,0,0,0-2.853-.389A8.242,8.242,0,0,0,1057.465,495.913Z" transform="translate(-999.246 -476.075)" fill="#fff"/><path d="M1131.47,509.378V498.615c0-7-5.057-10.632-12.253-10.632a19.162,19.162,0,0,0-9.984,2.528l1.426,6.094a16.261,16.261,0,0,1,8.169-2.334c3.63,0,5.187,1.686,5.187,3.89v1.426l-6.419.583c-5.381.519-9.854,3.955-9.854,9.465a9.308,9.308,0,0,0,9.66,9.4c3.436,0,6.418-1.167,7.78-4.084a6.108,6.108,0,0,0,4.019,4.057l-1.668,1.473,8.049.5.5-8.049-1.692,1.494C1132.636,513.715,1131.47,512.13,1131.47,509.378Zm-7.455-1.751a5.3,5.3,0,0,1-5.381,5.446,3.465,3.465,0,0,1-3.631-3.436c0-1.945,1.3-3.955,4.409-4.214l4.6-.389Z" transform="translate(-1038.242 -475.276)" fill="#fff"/><path d="M1214.466,509.21V498.447c0-7-5.057-10.632-12.254-10.632a19.183,19.183,0,0,0-9.964,2.516l-.614-2.6-4.239,6.861,6.861,4.238-.571-2.415a16.268,16.268,0,0,1,8.137-2.315c3.63,0,5.187,1.686,5.187,3.89v1.426l-6.418.583c-5.381.519-9.855,3.955-9.855,9.465a9.309,9.309,0,0,0,9.66,9.4c3.436,0,6.419-1.167,7.78-4.084a6.142,6.142,0,0,0,4.6,4.214l5.187-4.538C1215.892,513.877,1214.466,512.257,1214.466,509.21Zm-7.456-1.751a5.3,5.3,0,0,1-5.381,5.446,3.465,3.465,0,0,1-3.631-3.436c0-1.945,1.3-3.955,4.409-4.214l4.6-.389Z" transform="translate(-1091.804 -475.108)" fill="#fff"/><path d="M1304.61,498.129l-5.291-6.087-.18,2.566a8.058,8.058,0,0,1-1.832.185c-2.853,0-4.408-1.037-4.408-4.02V477.482h8.558l1.361-6.224H1292.9v-9.4l-7.585,3.306v6.094h-5.381v6.224h5.381V492c0,5.77,4.085,9.012,10.049,9.012a11.072,11.072,0,0,0,3.361-.47l-.2,2.873Z" transform="translate(-1154.028 -457.709)" fill="#fff"/></g></svg>